<svg version="1.0" xmlns="http://www.w3.org/2000/svg"
 width="1000.000000pt" height="1000.000000pt" viewBox="0 0 1000.000000 1000.000000"
 preserveAspectRatio="xMidYMid meet">

<g transform="translate(0.000000,1000.000000) scale(0.100000,-0.100000)"
fill="#000000" stroke="none">
<path d="M5710 8073 c-78 -8 -247 -46 -268 -59 -21 -14 -29 -13 -72 1 -63 21
-207 12 -263 -16 -21 -10 -48 -19 -61 -19 -44 0 -181 -40 -293 -84 -152 -62
-232 -102 -336 -169 -48 -31 -93 -57 -100 -57 -7 0 -35 -14 -63 -31 -143 -92
-276 -257 -351 -440 -26 -65 -65 -190 -60 -195 2 -2 29 36 60 84 106 161 271
312 409 377 26 12 45 25 42 28 -3 3 4 3 17 0 15 -4 20 -3 15 5 -7 11 12 16 52
15 10 -1 10 2 0 15 -10 12 -10 14 0 8 16 -9 46 20 36 35 -5 9 3 10 31 6 35 -6
36 -5 19 9 -18 14 -17 15 11 10 29 -6 29 -6 10 10 -19 16 -18 16 19 11 l38 -6
-18 21 c-19 21 -19 21 15 15 27 -6 31 -5 22 6 -15 19 -3 29 20 16 15 -7 17 -6
13 6 -4 8 -1 15 5 15 6 0 11 6 11 14 0 8 8 13 18 12 9 -2 25 6 34 16 10 12 22
17 29 12 9 -5 10 -2 6 9 -7 19 16 30 32 14 8 -8 14 -7 24 2 8 10 8 12 0 7 -6
-3 -15 -1 -19 5 -5 8 1 10 19 7 14 -3 25 -2 24 1 -3 8 8 11 46 11 30 0 29 -2
-32 -35 -35 -19 -71 -41 -81 -50 -9 -8 -22 -15 -28 -15 -7 0 -12 -4 -12 -10 0
-5 -6 -10 -14 -10 -8 0 -16 -6 -19 -13 -8 -22 8 -38 29 -31 16 5 15 4 -3 -10
-17 -13 -27 -14 -42 -6 -18 9 -23 6 -36 -22 l-16 -33 20 23 c22 25 44 24 87
-4 12 -7 59 -23 105 -34 99 -25 152 -48 213 -89 25 -17 49 -31 54 -31 5 0 38
-33 72 -72 99 -114 101 -119 10 -33 -179 170 -227 196 -363 193 l-82 -1 95 -7
c126 -9 193 -45 319 -171 70 -70 181 -232 169 -245 -3 -2 -11 9 -18 25 -16 39
-42 63 -37 35 1 -11 5 -23 8 -29 4 -5 17 -41 29 -80 12 -38 28 -79 34 -90 6
-11 11 -24 12 -30 0 -5 4 -21 9 -35 8 -24 8 -24 17 -5 5 14 6 7 3 -20 -4 -25
-2 -35 3 -27 16 24 33 -115 39 -312 l6 -189 -30 21 c-16 11 -63 34 -104 51
-41 16 -105 44 -144 61 -115 53 -141 58 -302 55 -150 -2 -220 -15 -287 -52
-17 -9 -26 -11 -21 -4 17 28 -32 4 -69 -34 l-39 -40 27 38 c15 20 23 37 17 37
-13 0 -74 -76 -77 -96 -4 -23 -14 -30 -14 -10 0 9 7 33 15 54 l15 37 -21 -24
c-11 -14 -23 -39 -27 -55 l-6 -31 -7 30 -7 30 -1 -33 c-1 -22 -5 -31 -13 -26
-8 5 -10 -7 -5 -47 3 -30 8 -63 12 -74 3 -11 -5 0 -19 25 -14 25 -25 37 -26
28 -1 -43 46 -111 60 -88 5 8 9 7 13 -5 4 -9 3 -13 -3 -10 -6 3 -10 -1 -10
-10 0 -12 4 -14 19 -5 18 9 19 7 15 -18 -3 -15 -9 -29 -15 -30 -5 -2 -6 -9 -3
-14 4 -6 2 -8 -3 -5 -6 4 -16 0 -23 -8 -9 -11 -9 -15 -1 -15 8 0 7 -8 -3 -27
-7 -16 -17 -43 -21 -60 -3 -18 -10 -33 -14 -33 -4 0 -5 -16 -3 -35 3 -21 0
-35 -7 -35 -6 0 -8 -7 -5 -15 4 -8 0 -32 -9 -53 -8 -20 -12 -43 -10 -49 3 -7
0 -13 -7 -13 -8 0 -8 -6 0 -20 7 -14 7 -20 0 -20 -5 0 -10 -7 -10 -16 0 -8 4
-12 10 -9 6 4 7 -1 3 -11 -5 -13 -3 -15 8 -9 11 7 12 6 2 -7 -14 -16 -8 -28
14 -28 8 0 11 5 8 10 -3 6 -2 10 4 10 5 0 12 -6 14 -12 3 -8 6 -6 6 5 1 9 -4
17 -11 17 -6 0 -8 3 -4 7 4 5 14 0 21 -10 13 -18 14 -17 20 2 6 19 17 26 38
22 5 -1 6 3 2 9 -3 6 -10 8 -15 5 -5 -3 -12 0 -16 7 -4 7 -4 10 1 6 4 -4 15
-2 23 5 13 10 14 9 8 -2 -6 -9 -5 -12 5 -9 8 3 13 11 11 17 -1 6 2 11 7 11 5
0 13 10 17 22 8 25 34 55 34 39 0 -6 14 -11 32 -11 22 0 42 10 67 33 18 17 30
25 25 17 -5 -8 -9 -20 -10 -27 -1 -7 -9 -27 -18 -44 -9 -18 -16 -39 -16 -49 0
-9 -5 -21 -11 -27 -18 -18 3 -22 56 -11 28 5 64 9 82 9 37 0 58 22 74 82 13
50 4 77 -24 74 -18 -2 -21 3 -20 21 2 13 -1 21 -7 17 -6 -3 -10 -12 -10 -20 0
-8 -4 -17 -10 -20 -11 -7 -2 23 13 42 13 18 29 5 22 -18 -4 -11 -2 -19 4 -19
6 0 11 6 11 14 0 7 9 24 19 38 18 22 24 24 68 18 50 -8 103 -29 103 -42 0 -5
7 -8 15 -8 8 0 15 -5 15 -11 0 -5 5 -7 10 -4 6 4 10 -8 10 -29 0 -20 4 -36 9
-36 18 0 4 -35 -15 -38 -10 -2 -59 -17 -109 -34 -54 -19 -119 -33 -163 -36
-40 -2 -75 -8 -77 -12 -7 -12 148 -9 163 3 8 6 12 6 12 -2 0 -7 9 -9 27 -5 23
6 25 5 13 -8 -8 -8 -19 -15 -25 -15 -37 0 -55 -4 -50 -13 4 -6 11 -8 16 -5 5
4 9 -1 9 -9 0 -9 -3 -15 -7 -15 -5 1 -30 1 -58 0 -65 -1 -48 -18 34 -33 70
-13 133 -6 276 32 22 6 47 12 56 14 9 3 39 16 66 30 28 14 54 22 58 18 5 -4 6
-2 3 3 -3 6 6 19 21 30 26 19 26 19 12 0 -8 -11 5 1 30 27 37 38 48 45 59 35
10 -9 11 -9 6 1 -4 6 -2 12 3 12 6 0 11 6 11 14 0 9 7 12 19 9 10 -3 22 1 26
8 6 8 4 10 -6 5 -8 -4 -3 1 11 12 14 12 26 19 28 17 2 -1 5 -58 7 -125 3 -68
7 -125 9 -128 3 -2 15 3 28 12 12 9 32 16 43 16 43 0 145 41 145 58 0 10 14
60 30 112 16 52 28 96 26 97 -2 2 -16 -1 -31 -7 -43 -16 -40 -5 5 15 33 15 41
24 46 54 3 20 10 53 14 73 7 33 5 37 -14 41 l-21 4 21 2 c17 1 23 9 26 36 2
20 2 38 -1 41 -7 7 -81 -68 -75 -77 2 -4 -9 -7 -25 -7 -21 1 -52 -17 -115 -67
-48 -37 -89 -65 -91 -63 -3 2 30 30 73 61 42 31 91 68 107 83 17 14 41 34 55
42 34 23 87 98 76 109 -2 2 -42 7 -90 10 l-86 6 0 -32 c0 -17 -4 -31 -9 -31
-5 0 -5 16 0 38 5 20 9 39 9 42 0 3 34 4 75 2 64 -3 75 -1 75 13 0 23 -29 75
-41 75 -6 0 -9 6 -6 14 3 7 -1 24 -10 36 -15 21 -14 21 5 9 22 -14 47 -57 43
-74 -2 -5 1 -7 5 -2 4 4 18 -3 31 -15 30 -28 37 -18 53 62 6 30 20 93 32 139
16 69 18 85 6 92 -10 7 -10 9 2 9 11 0 24 46 54 193 21 105 44 224 51 262 12
74 30 119 45 110 4 -3 0 -22 -10 -43 -10 -20 -37 -136 -60 -257 -23 -121 -44
-230 -47 -242 -4 -17 1 -26 18 -33 21 -9 22 -10 3 -7 -19 4 -24 -4 -42 -67
-18 -66 -42 -197 -42 -232 0 -10 19 0 59 31 69 55 211 198 211 214 0 32 -45 1
-125 -84 -48 -52 -91 -93 -93 -90 -3 3 32 43 79 90 46 47 86 90 87 95 2 6 -7
10 -20 10 -12 0 -30 5 -38 11 -13 9 -13 10 1 6 9 -3 38 -9 63 -12 38 -6 47 -5
45 6 -1 8 3 25 9 39 11 23 12 22 6 -10 l-6 -35 44 43 c35 35 40 44 28 52 -12
7 -8 10 14 10 l28 0 -47 -55 c-46 -54 -46 -55 -20 -55 15 0 81 13 148 29 67
16 138 32 157 36 19 4 43 15 54 24 17 15 18 15 15 -4 -3 -11 -13 -21 -24 -23
-61 -10 -365 -85 -365 -91 0 -3 38 -44 84 -90 l83 -83 45 49 c24 26 73 80 108
118 83 92 83 92 79 79 -2 -6 -38 -49 -80 -95 -42 -46 -90 -100 -107 -119 l-31
-35 52 -55 52 -55 -56 53 -56 53 -48 -53 -48 -53 184 -3 c226 -4 529 7 529 19
0 5 -5 8 -12 7 -7 -2 -27 39 -48 97 -38 106 -65 163 -136 286 -46 79 -52 95
-32 83 7 -4 8 -3 4 5 -4 6 -11 9 -15 6 -5 -2 -32 27 -62 67 -69 92 -213 243
-308 322 -125 103 -227 169 -396 256 -185 96 -276 130 -360 135 -79 5 -107 12
-117 27 -4 7 -7 51 -6 98 3 69 6 84 18 82 11 -3 11 1 -3 16 -14 15 -17 39 -17
145 0 149 -17 138 159 107 289 -50 526 -156 791 -356 99 -75 269 -235 336
-316 l39 -48 85 60 c47 33 95 60 108 60 13 0 37 -14 54 -30 28 -28 30 -38 17
-75 -2 -6 113 -172 257 -370 143 -198 296 -409 339 -470 366 -510 364 -508
415 -536 l49 -27 -6 52 c-34 329 -116 663 -209 848 -35 70 -44 102 -22 80 7
-7 16 -12 22 -12 5 0 -1 8 -12 19 -12 10 -22 22 -22 26 0 5 9 0 19 -9 11 -10
26 -16 33 -14 7 3 -9 18 -37 36 -64 39 -85 58 -85 77 0 12 4 14 20 5 15 -8 21
-6 30 9 7 14 7 22 -2 27 -6 4 -14 2 -16 -4 -2 -7 -8 -12 -13 -12 -4 0 -6 6 -3
13 3 8 -11 26 -33 42 -21 16 -41 34 -45 39 -42 63 -237 283 -329 373 -330 323
-736 523 -1190 588 -95 13 -384 18 -479 8z m-576 -152 c4 -5 -10 -19 -29 -31
-27 -17 -38 -19 -52 -10 -17 11 -17 11 0 6 9 -3 17 -1 17 4 0 6 6 10 14 10 7
0 19 7 26 15 15 18 17 18 24 6z m-134 -55 c0 -9 -30 -14 -35 -6 -4 6 3 10 14
10 12 0 21 -2 21 -4z m30 -11 c0 -13 -94 -45 -103 -36 -5 5 -17 7 -26 5 -9 -3
-3 2 12 11 16 9 35 14 43 11 8 -3 24 -1 36 4 27 10 38 12 38 5z m-280 -189 c0
-3 -4 -8 -10 -11 -5 -3 -10 -1 -10 4 0 6 5 11 10 11 6 0 10 -2 10 -4z m-460
-34 c-118 -93 -201 -180 -299 -319 -69 -97 -78 -100 -25 -11 73 125 186 252
289 322 60 42 85 47 35 8z m627 -68 c-3 -3 -12 -4 -19 -1 -8 3 -5 6 6 6 11 1
17 -2 13 -5z m733 -154 c12 -8 9 -10 -13 -10 -16 0 -26 4 -22 10 8 12 16 12
35 0z m180 -10 c8 -5 11 -10 5 -10 -5 0 -17 5 -25 10 -8 5 -10 10 -5 10 6 0
17 -5 25 -10z m-95 -16 c45 -11 241 -105 315 -152 97 -62 170 -115 166 -120
-3 -2 -21 8 -40 23 -19 15 -41 28 -49 29 -7 1 -47 23 -89 49 -115 71 -317 167
-353 167 -8 0 -15 5 -15 11 0 6 8 8 18 5 9 -3 31 -8 47 -12z m140 -4 c3 -6 -1
-7 -9 -4 -18 7 -21 14 -7 14 6 0 13 -4 16 -10z m80 -40 c3 -6 -1 -7 -9 -4 -18
7 -21 14 -7 14 6 0 13 -4 16 -10z m155 -91 l25 -21 -31 17 c-17 10 -41 26 -55
37 l-24 19 30 -15 c17 -8 41 -25 55 -37z m-400 -23 c0 -2 -8 -10 -17 -17 -16
-13 -17 -12 -4 4 13 16 21 21 21 13z m526 -68 c4 -7 -9 1 -29 16 -20 16 -37
30 -37 33 0 7 58 -36 66 -49z m-586 27 c0 -2 -10 -9 -22 -15 -22 -11 -22 -10
-4 4 21 17 26 19 26 11z m-50 -29 c0 -2 -8 -10 -17 -17 -16 -13 -17 -12 -4 4
13 16 21 21 21 13z m-86 -78 c-37 -40 -50 -49 -52 -36 -2 10 2 25 8 35 9 15
10 14 4 -7 -5 -22 -1 -20 37 18 60 58 62 53 3 -10z m847 -25 c8 -10 -10 2 -38
26 -29 24 -53 46 -53 48 0 7 75 -54 91 -74z m-486 -38 c-49 -46 -97 -84 -105
-85 -8 0 3 15 25 33 22 17 67 55 100 84 91 78 81 63 -20 -32z m386 58 c13 -17
13 -17 -6 -3 -11 8 -22 16 -24 17 -2 2 0 3 6 3 6 0 17 -8 24 -17z m72 -44 c35
-29 49 -59 27 -59 -6 0 -10 8 -8 18 2 10 -3 17 -12 17 -17 0 -60 34 -60 47 0
15 15 8 53 -23z m-166 -11 c-3 -8 -6 -5 -6 6 -1 11 2 17 5 13 3 -3 4 -12 1
-19z m-390 -40 c-3 -8 -6 -5 -6 6 -1 11 2 17 5 13 3 -3 4 -12 1 -19z m380 -20
c-3 -7 -5 -2 -5 12 0 14 2 19 5 13 2 -7 2 -19 0 -25z m-412 -48 c-3 -6 -36
-35 -73 -65 -37 -30 -84 -68 -104 -86 -21 -17 -38 -29 -38 -26 0 6 211 187
218 187 2 0 0 -5 -3 -10z m402 -47 c-3 -10 -5 -2 -5 17 0 19 2 27 5 18 2 -10
2 -26 0 -35z m-399 -21 c-6 -29 -13 -50 -16 -47 -2 2 1 27 8 55 7 28 14 49 16
47 3 -2 -1 -27 -8 -55z m757 28 c10 -11 16 -20 13 -20 -3 0 -13 9 -23 20 -10
11 -16 20 -13 20 3 0 13 -9 23 -20z m40 -6 c9 -15 12 -23 6 -20 -11 7 -35 46
-28 46 3 0 12 -12 22 -26z m36 -51 c13 -16 12 -17 -3 -4 -10 7 -18 15 -18 17
0 8 8 3 21 -13z m-444 -35 c-3 -7 -5 -2 -5 12 0 14 2 19 5 13 2 -7 2 -19 0
-25z m498 -44 c9 -15 12 -23 6 -20 -11 7 -35 46 -28 46 3 0 12 -12 22 -26z
m-508 -36 c-3 -7 -5 -2 -5 12 0 14 2 19 5 13 2 -7 2 -19 0 -25z m405 -12 c4
-6 12 -11 18 -11 5 0 9 -3 8 -6 -2 -3 3 -13 11 -22 7 -10 10 -17 7 -17 -10 0
-86 64 -86 72 0 10 33 -3 42 -16z m162 -19 c3 4 6 4 6 0 0 -19 -20 -13 -34 11
l-17 27 19 -22 c11 -12 22 -19 26 -16z m-987 1 c-3 -8 -6 -5 -6 6 -1 11 2 17
5 13 3 -3 4 -12 1 -19z m-10 -40 c-3 -8 -6 -5 -6 6 -1 11 2 17 5 13 3 -3 4
-12 1 -19z m40 6 c-3 -3 -12 -4 -19 -1 -8 3 -5 6 6 6 11 1 17 -2 13 -5z m983
0 c0 -8 -19 -13 -24 -6 -3 5 1 9 9 9 8 0 15 -2 15 -3z m-1076 -162 c3 -2 9 11
15 29 5 19 10 27 10 19 1 -8 -3 -31 -9 -49 -7 -24 -6 -39 2 -48 9 -11 8 -13
-2 -11 -7 2 -18 -14 -26 -37 -8 -22 -11 -29 -9 -15 19 96 19 94 -29 176 -25
43 -46 83 -46 89 0 5 20 -26 45 -69 25 -44 47 -81 49 -84z m950 119 c-2 -3
-12 3 -22 13 -16 17 -16 18 5 5 12 -7 20 -15 17 -18z m-907 -3 c-3 -8 -6 -5
-6 6 -1 11 2 17 5 13 3 -3 4 -12 1 -19z m-10 -40 c-3 -8 -6 -5 -6 6 -1 11 2
17 5 13 3 -3 4 -12 1 -19z m227 -34 c5 -14 4 -15 -9 -4 -17 14 -19 20 -6 20 5
0 12 -7 15 -16z m906 -58 c0 -6 -7 -1 -15 10 -8 10 -15 23 -15 28 0 6 7 1 15
-10 8 -10 15 -23 15 -28z m25 -47 c9 -17 15 -33 13 -35 -3 -2 -12 12 -21 31
-21 43 -13 47 8 4z m-1716 -10 c36 -7 68 -15 71 -18 3 -3 31 -19 62 -35 32
-15 68 -37 80 -48 13 -11 29 -23 37 -27 11 -7 10 -12 -4 -29 -14 -16 -23 -18
-42 -11 -31 12 -36 11 -28 -1 4 -6 -6 -10 -22 -10 -15 0 -36 -7 -45 -14 -20
-15 -25 -31 -6 -20 6 4 8 3 4 -4 -3 -6 -16 -9 -27 -7 -12 3 -30 0 -40 -6 -13
-7 -19 -6 -19 1 0 6 -4 8 -10 5 -5 -3 -19 -1 -31 6 -12 6 -19 7 -15 1 4 -6 -2
-8 -14 -5 -11 3 -20 10 -20 15 0 5 -5 6 -11 3 -16 -11 -81 4 -73 17 4 6 -1 6
-14 -1 -27 -14 -54 -15 -32 -1 12 8 11 10 -6 10 -12 0 -36 3 -54 7 -23 4 -31
3 -26 -5 3 -6 1 -14 -5 -18 -7 -4 -9 -3 -6 3 10 16 -56 11 -69 -6 -8 -10 -15
-11 -31 -3 -11 6 -23 9 -26 6 -3 -3 -3 5 0 18 6 20 5 22 -10 9 -9 -7 -14 -17
-11 -22 3 -5 -2 -6 -10 -3 -9 3 -16 10 -16 16 0 5 6 6 13 2 8 -5 7 -2 -2 10
-10 12 -17 14 -25 6 -15 -15 -30 -12 -17 3 6 8 9 16 6 19 -3 2 7 15 22 29 l28
24 -20 -25 -20 -25 27 24 c15 13 25 28 21 34 -3 6 -1 7 4 4 6 -4 21 2 34 12
25 19 94 51 111 51 5 0 6 -4 3 -10 -8 -13 -11 -13 60 10 70 22 132 25 224 9z
m495 -108 c-4 -17 -9 -30 -11 -27 -3 2 -2 19 2 36 4 17 9 30 11 27 2 -2 1 -18
-2 -36z m1244 -15 c2 -11 -3 -16 -17 -16 -12 0 -21 4 -21 9 0 5 -3 17 -6 25
-5 13 -2 15 17 7 13 -4 25 -16 27 -25z m-2245 -28 c-4 -7 -8 -17 -8 -23 0 -5
-9 -10 -20 -10 -12 -1 -19 -7 -17 -15 3 -11 0 -11 -12 -1 -20 17 -12 31 14 26
11 -2 20 0 20 6 0 5 -6 9 -12 10 -7 0 -4 4 7 9 29 12 37 12 28 -2z m967 -118
c0 -11 -4 -20 -9 -20 -5 0 -7 9 -4 20 3 11 7 20 9 20 2 0 4 -9 4 -20z m-607
-45 c25 -10 35 -20 31 -30 -4 -8 -1 -15 5 -15 6 0 11 -7 11 -15 0 -9 6 -18 14
-21 8 -3 12 -13 9 -23 -4 -17 -9 -17 -61 -5 -31 8 -100 17 -152 20 -52 3 -98
8 -101 10 -4 2 -16 -5 -29 -16 -20 -17 -50 -18 -50 0 0 30 86 96 144 111 42
11 134 3 179 -16z m632 -15 c10 -16 -3 -29 -25 -23 -16 4 -18 8 -9 19 14 17
25 18 34 4z m-936 -123 c-2 -2 -20 -14 -39 -27 -29 -20 -33 -21 -20 -5 20 26
32 35 49 35 8 0 12 -1 10 -3z m946 -117 c-3 -5 -12 -10 -18 -10 -7 0 -6 4 3
10 19 12 23 12 15 0z m-45 -20 c-8 -5 -19 -10 -25 -10 -5 0 -3 5 5 10 8 5 20
10 25 10 6 0 3 -5 -5 -10z m-70 -30 c-8 -5 -19 -10 -25 -10 -5 0 -3 5 5 10 8
5 20 10 25 10 6 0 3 -5 -5 -10z m179 -11 c3 -11 1 -12 -11 -2 -8 7 -19 9 -23
5 -5 -4 -5 -1 -1 6 9 16 28 11 35 -9z m-9 -23 c0 -2 -7 -7 -16 -10 -8 -3 -12
-2 -9 4 6 10 25 14 25 6z"/>
<path d="M5149 6213 c-13 -16 -12 -17 4 -4 9 7 17 15 17 17 0 8 -8 3 -21 -13z"/>
<path d="M8210 7990 c-23 -7 -23 -8 9 -9 19 -1 31 -4 27 -8 -3 -4 4 -13 16
-20 13 -7 18 -12 12 -13 -6 0 -11 -10 -11 -23 0 -13 5 -24 11 -24 11 0 106
-53 95 -53 -3 0 -33 11 -67 25 -84 34 -90 31 -14 -9 65 -33 74 -43 50 -57 -10
-6 -10 -13 -2 -26 9 -14 8 -21 -2 -31 -7 -6 -11 -21 -9 -32 3 -14 -1 -20 -16
-20 -25 0 -35 3 -32 12 2 4 -4 5 -13 1 -8 -3 -13 -12 -10 -19 3 -9 -2 -14 -14
-14 -11 0 -20 5 -20 11 0 5 -5 7 -10 4 -6 -4 -8 -10 -5 -15 3 -5 -7 -12 -22
-16 -15 -4 -35 -13 -44 -20 -8 -7 -26 -15 -39 -17 -13 -2 -24 -11 -26 -20 -2
-13 2 -15 16 -7 10 5 20 7 23 2 2 -4 2 -1 1 6 -3 8 4 10 21 6 20 -5 25 -2 26
12 0 11 3 14 5 7 6 -14 70 10 67 25 -1 5 11 8 26 6 17 -2 34 3 41 12 8 8 21
12 31 9 11 -4 19 -2 19 3 0 5 6 9 13 9 6 -1 36 2 65 7 39 6 57 5 65 -4 9 -10
9 -11 -3 -6 -8 4 -6 0 5 -9 15 -13 16 -19 7 -22 -10 -4 -10 -10 3 -30 10 -14
14 -31 9 -41 -4 -9 -6 -23 -5 -30 1 -7 -4 -11 -11 -10 -7 2 -12 -3 -10 -10 1
-8 -2 -11 -8 -7 -6 3 -7 11 -4 17 5 8 1 9 -10 5 -10 -4 -22 -7 -27 -7 -5 0 -9
-10 -9 -21 0 -18 -2 -19 -15 -9 -10 9 -15 9 -15 1 0 -6 4 -11 8 -11 5 0 17 -7
28 -15 18 -13 18 -14 -6 -8 -14 3 -31 10 -38 16 -24 19 -26 -5 -2 -25 14 -11
19 -17 13 -13 -7 3 -13 1 -13 -4 0 -14 17 -14 25 -1 4 7 12 7 24 0 10 -5 20
-7 23 -5 3 3 5 -1 5 -8 0 -7 -9 -14 -19 -15 -48 -5 -48 -5 -36 -19 6 -8 14
-10 17 -6 3 4 12 9 20 11 11 2 12 0 3 -11 -7 -8 -9 -16 -6 -19 2 -3 -2 -8 -11
-12 -9 -3 -14 -2 -11 3 8 13 -25 23 -38 12 -7 -6 -18 -6 -26 -1 -18 11 -31 3
-24 -14 9 -24 -45 -30 -70 -8 -20 19 -86 46 -86 36 0 -3 -9 0 -20 6 -16 8 -20
8 -18 -2 2 -7 14 -18 28 -24 21 -9 22 -11 7 -17 -11 -4 -16 -3 -12 3 10 17
-37 11 -57 -7 -12 -11 -18 -12 -18 -3 0 7 -8 10 -20 7 -13 -3 -18 -1 -13 6 4
7 0 8 -11 4 -14 -5 -17 -3 -12 8 7 18 -19 21 -31 3 -17 -29 -12 -40 15 -34 23
5 24 5 9 -5 -11 -6 -30 -9 -45 -6 l-26 5 23 -18 c16 -11 20 -20 12 -24 -6 -4
-11 -3 -11 3 0 11 -26 9 -37 -4 -4 -4 -2 -5 5 -1 7 4 15 1 18 -8 3 -9 10 -16
15 -16 12 0 49 37 49 49 0 5 11 11 25 14 24 4 24 3 10 -13 -8 -9 -13 -19 -11
-21 3 -3 -8 -13 -25 -24 -29 -20 -37 -35 -19 -35 6 0 10 5 10 11 0 5 5 7 11 4
6 -4 8 -13 5 -21 -8 -20 -1 -17 30 11 15 14 34 23 42 20 7 -3 23 -5 33 -5 12
0 17 -5 14 -10 -4 -6 -20 -9 -35 -6 -28 4 -57 -14 -43 -27 3 -4 1 -7 -6 -7 -7
0 -10 -4 -7 -9 4 -5 0 -12 -6 -14 -7 -3 -4 -6 6 -6 16 -1 17 -4 8 -13 -7 -7
-12 -16 -12 -21 0 -5 7 -2 15 7 8 8 15 19 15 25 0 6 5 11 10 11 6 0 10 -6 10
-14 0 -8 6 -17 13 -19 6 -3 2 -6 -10 -6 -12 -1 -25 -6 -29 -12 -4 -7 -1 -10 7
-7 7 2 19 0 25 -6 9 -8 8 -15 -3 -28 -9 -10 -12 -18 -7 -18 5 0 9 -27 9 -60 0
-33 -3 -60 -6 -60 -9 0 -21 -40 -20 -65 0 -11 -2 -14 -5 -7 -5 10 -9 9 -19 -4
-14 -19 -8 -57 7 -48 5 3 4 -3 -3 -14 -14 -22 -5 -56 14 -49 6 2 11 12 9 22
-2 9 1 14 6 11 14 -9 22 19 17 57 -4 23 -3 26 3 13 12 -27 20 -2 15 46 -2 23
2 42 11 51 8 8 12 17 9 21 -4 3 -1 6 6 6 6 0 16 10 21 23 9 21 9 21 7 -4 -2
-15 -7 -33 -13 -40 -15 -20 -26 -39 -21 -39 10 0 65 88 59 95 -4 3 -2 5 3 3 6
-1 31 19 57 45 51 51 67 55 113 31 17 -9 44 -17 60 -18 17 -1 29 -8 28 -14 -2
-6 4 -9 13 -5 13 5 13 7 2 14 -10 7 -10 9 2 9 8 1 3 7 -12 16 -16 8 -28 20
-28 27 0 8 3 8 9 -2 6 -9 11 -10 15 -2 4 6 14 11 23 11 12 0 13 -3 4 -14 -8
-10 -9 -16 -1 -21 6 -3 8 -10 5 -15 -9 -15 15 -22 31 -9 8 6 17 9 21 5 3 -3 1
-6 -6 -6 -7 0 -10 -4 -7 -9 3 -4 -16 -15 -42 -24 -29 -9 -46 -20 -44 -29 3
-10 1 -10 -9 -1 -9 9 -19 8 -43 -5 -57 -31 -139 -109 -130 -123 3 -5 1 -9 -4
-9 -4 0 -16 -17 -26 -37 -10 -22 -12 -33 -5 -25 21 20 38 15 31 -10 -5 -22 -5
-22 22 -5 50 33 102 23 128 -26 13 -26 -4 -37 -58 -37 -54 0 -80 -19 -65 -47
9 -18 6 -25 -24 -52 -43 -37 -72 -45 -133 -38 -40 5 -43 4 -22 -5 14 -6 77
-12 140 -12 99 0 126 4 195 27 116 39 199 91 296 187 71 71 94 101 133 180 60
123 79 213 73 345 -17 337 -262 608 -591 654 -87 12 -120 13 -156 1z m260
-490 c0 -5 -2 -10 -4 -10 -3 0 -8 5 -11 10 -3 6 -1 10 4 10 6 0 11 -4 11 -10z
m70 -10 c0 -5 -5 -10 -11 -10 -5 0 -7 5 -4 10 3 6 8 10 11 10 2 0 4 -4 4 -10z
m335 -60 c1 -16 -1 -18 -13 -7 -13 10 -14 8 -8 -13 6 -22 6 -23 -5 -6 -10 16
-9 21 4 31 9 7 15 15 12 18 -3 4 -2 5 2 2 4 -3 7 -14 8 -25z m-100 -20 c3 -6
-1 -7 -9 -4 -18 7 -21 14 -7 14 6 0 13 -4 16 -10z m129 -16 c3 -8 2 -12 -4 -9
-6 3 -10 10 -10 16 0 14 7 11 14 -7z m-86 -19 c-3 -3 -9 2 -12 12 -6 14 -5 15
5 6 7 -7 10 -15 7 -18z m-444 -27 c-4 -7 -3 -8 5 -4 6 4 9 11 6 16 -3 5 0 12
6 16 8 4 9 3 5 -4 -4 -7 6 -15 26 -21 18 -5 26 -10 18 -11 -31 -5 -89 -6 -85
-2 2 3 0 13 -6 24 -10 18 -8 18 11 8 11 -6 17 -16 14 -22z m525 -12 c1 -5 -5
-3 -13 4 -8 6 -12 19 -9 27 6 14 8 14 14 -3 4 -10 8 -23 8 -28z m-669 30 c0
-11 -19 -15 -25 -6 -3 5 1 10 9 10 9 0 16 -2 16 -4z m-90 -16 c0 -5 -4 -10
-10 -10 -5 0 -10 5 -10 10 0 6 5 10 10 10 6 0 10 -4 10 -10z m25 -20 c3 -5 1
-10 -4 -10 -6 0 -11 5 -11 10 0 6 2 10 4 10 3 0 8 -4 11 -10z m50 0 c-27 -12
-43 -12 -25 0 8 5 22 9 30 9 10 0 8 -3 -5 -9z m85 -5 c0 -7 -30 -13 -34 -7 -3
4 4 9 15 9 10 1 19 0 19 -2z m512 -56 c7 0 4 -4 -7 -8 -24 -10 -38 8 -28 35 6
15 7 15 14 -4 5 -12 14 -22 21 -23z m-662 16 c-7 -8 -17 -15 -22 -15 -11 0 14
29 26 30 5 0 3 -7 -4 -15z m698 -10 c-3 -3 -9 2 -12 12 -6 14 -5 15 5 6 7 -7
10 -15 7 -18z m-453 -6 c5 -5 -7 -9 -30 -9 -26 0 -35 -3 -27 -9 11 -7 10 -9
-3 -14 -9 -4 -13 -3 -10 2 13 22 -38 29 -115 16 -60 -10 -45 3 22 20 54 14
145 10 163 -6z m71 -12 c4 -3 -4 -4 -16 -2 -30 6 -40 16 -12 12 12 -2 24 -6
28 -10z m419 4 c3 -5 1 -12 -5 -16 -5 -3 -10 1 -10 9 0 18 6 21 15 7z m-578
-17 c-3 -3 -12 -4 -19 -1 -8 3 -5 6 6 6 11 1 17 -2 13 -5z m503 -4 c0 -5 -4
-10 -10 -10 -5 0 -10 5 -10 10 0 6 5 10 10 10 6 0 10 -4 10 -10z m27 4 c-3 -3
0 -12 6 -19 9 -9 17 -10 31 -3 14 8 21 6 28 -6 5 -9 15 -14 21 -10 7 3 5 -1
-4 -8 -15 -12 -15 -18 -5 -43 8 -18 10 -39 5 -50 -7 -19 -8 -19 -8 2 -1 29
-31 103 -41 103 -5 0 -12 -5 -16 -11 -3 -6 -20 -9 -37 -6 -26 3 -28 2 -13 -8
15 -12 15 -13 -4 -18 -11 -3 -17 -1 -14 4 3 6 -6 7 -23 3 -15 -4 -30 -7 -33
-6 -28 0 -29 5 -4 31 15 17 31 28 36 25 4 -3 8 0 8 6 0 6 11 3 25 -6 15 -9 25
-13 24 -8 -3 20 2 34 13 34 6 0 9 -3 5 -6z m-647 -14 c0 -5 -5 -10 -11 -10 -5
0 -7 5 -4 10 3 6 8 10 11 10 2 0 4 -4 4 -10z m75 0 c-3 -5 -13 -10 -21 -10 -8
0 -12 5 -9 10 3 6 13 10 21 10 8 0 12 -4 9 -10z m-50 -9 c3 -5 1 -12 -5 -16
-5 -3 -10 1 -10 9 0 18 6 21 15 7z m-73 -23 c-8 -8 -18 -8 -34 -1 -21 9 -20
10 11 11 25 0 31 -2 23 -10z m37 -15 c-6 -7 -21 -13 -32 -13 -20 0 -20 1 -3
13 10 8 25 14 32 14 10 0 11 -4 3 -14z m682 -6 c-6 -8 -7 -18 -3 -23 4 -4 -1
-2 -11 6 -18 14 -18 14 0 21 26 11 27 10 14 -4z m-536 -26 c-6 -4 -23 -11 -40
-14 l-30 -6 30 14 c35 16 54 19 40 6z m360 -1 c-3 -5 -12 -10 -18 -10 -7 0 -6
4 3 10 19 12 23 12 15 0z m-45 -20 c-6 -11 -13 -20 -16 -20 -2 0 0 9 6 20 6
11 13 20 16 20 2 0 0 -9 -6 -20z m-196 -19 c4 -5 -3 -7 -14 -4 -23 6 -26 13
-6 13 8 0 17 -4 20 -9z m-49 -171 c-3 -5 -1 -10 6 -10 7 0 10 -2 7 -5 -8 -9
-38 6 -32 16 3 5 10 9 15 9 6 0 7 -4 4 -10z m-60 -19 c-9 -8 -36 -10 -30 -2 2
4 11 8 20 8 8 0 13 -3 10 -6z m45 -7 c0 -8 -19 -13 -24 -6 -3 5 1 9 9 9 8 0
15 -2 15 -3z m55 -34 c-5 -24 3 -25 24 -6 14 12 19 12 35 1 11 -8 16 -21 13
-29 -5 -13 -12 -14 -32 -6 -15 6 -31 8 -36 4 -5 -3 -10 0 -10 5 -1 6 -2 17 -3
24 -2 13 3 27 9 27 2 0 2 -9 0 -20z m40 -69 c20 -24 20 -24 0 -14 -11 6 -28 9
-37 8 -10 -2 -18 -1 -18 2 0 5 35 34 35 30 0 -1 9 -13 20 -26z m-5 -25 c0 -3
-4 -8 -10 -11 -5 -3 -10 -1 -10 4 0 6 5 11 10 11 6 0 10 -2 10 -4z"/>
<path d="M8886 7207 c3 -10 9 -15 12 -12 3 3 0 11 -7 18 -10 9 -11 8 -5 -6z"/>
<path d="M8185 7900 c27 -12 43 -12 25 0 -8 5 -22 9 -30 9 -10 0 -8 -3 5 -9z"/>
<path d="M5480 7840 c0 -5 5 -10 10 -10 6 0 10 5 10 10 0 6 -4 10 -10 10 -5 0
-10 -4 -10 -10z"/>
<path d="M7975 7820 c-3 -5 -1 -10 4 -10 6 0 11 5 11 10 0 6 -2 10 -4 10 -3 0
-8 -4 -11 -10z"/>
<path d="M5752 7779 c-7 -12 -10 -24 -6 -27 4 -4 9 -1 11 6 7 18 18 15 65 -14
35 -22 40 -24 34 -8 -6 18 -5 18 8 1 10 -14 15 -15 19 -5 3 7 6 3 6 -9 1 -13
6 -23 12 -23 6 0 9 7 6 14 -4 11 -1 13 10 9 11 -4 14 -2 11 8 -4 12 -126 67
-153 68 -6 1 -16 -8 -23 -20z"/>
<path d="M7987 7763 c-4 -3 -7 -11 -7 -17 0 -6 5 -5 12 2 6 6 9 14 7 17 -3 3
-9 2 -12 -2z"/>
<path d="M7743 7708 c-24 -32 -24 -41 0 -19 15 14 27 26 27 28 0 8 -19 2 -27
-9z"/>
<path d="M5957 7696 c-16 -13 -15 -15 18 -34 l35 -21 0 34 c0 38 -20 46 -53
21z"/>
<path d="M8140 7660 c-8 -5 -12 -12 -9 -15 4 -3 12 1 19 10 14 17 11 19 -10 5z"/>
<path d="M7785 7650 c3 -5 8 -10 11 -10 2 0 4 5 4 10 0 6 -5 10 -11 10 -5 0
-7 -4 -4 -10z"/>
<path d="M4670 7640 c0 -5 5 -10 10 -10 6 0 10 5 10 10 0 6 -4 10 -10 10 -5 0
-10 -4 -10 -10z"/>
<path d="M8046 7629 c2 -4 -1 -9 -7 -11 -7 -2 -4 -10 7 -18 12 -10 15 -11 10
-2 -4 7 -3 19 3 26 8 9 7 13 -4 13 -8 0 -12 -4 -9 -8z"/>
<path d="M6120 7600 c-8 -15 -6 -21 9 -30 29 -15 31 -13 31 20 0 35 -23 41
-40 10z"/>
<path d="M7955 7590 c-9 -10 -21 -18 -25 -17 -4 1 -10 -2 -11 -8 -7 -18 37
-17 52 1 12 16 12 17 -4 11 -11 -4 -16 -3 -12 3 3 6 15 10 26 10 10 0 19 5 19
10 0 17 -26 11 -45 -10z"/>
<path d="M6250 7525 c0 -8 7 -15 15 -15 8 0 15 7 15 15 0 8 -7 15 -15 15 -8 0
-15 -7 -15 -15z"/>
<path d="M7873 7512 c2 -23 -1 -27 -23 -24 -18 2 -21 0 -11 -6 11 -8 11 -10 0
-15 -8 -4 0 -4 16 0 42 8 46 12 43 36 -2 16 2 21 14 19 9 -1 19 1 22 6 3 5
-10 9 -29 10 -31 1 -34 -1 -32 -26z"/>
<path d="M7850 7510 c0 -5 5 -10 11 -10 5 0 7 5 4 10 -3 6 -8 10 -11 10 -2 0
-4 -4 -4 -10z"/>
<path d="M7903 7480 c-8 -12 -9 -21 -3 -25 6 -3 10 1 10 10 0 9 4 14 8 11 5
-3 9 1 9 9 0 21 -10 19 -24 -5z"/>
<path d="M8233 7466 c-4 -5 -1 -6 4 -3 6 4 23 0 38 -7 24 -12 30 -12 41 -1 8
7 14 16 14 19 0 8 -92 1 -97 -8z"/>
<path d="M6455 7380 c17 -33 32 -39 32 -12 0 22 -15 42 -33 42 -12 0 -12 -5 1
-30z"/>
<path d="M7774 7399 c-3 -6 -1 -16 6 -22 10 -9 11 -9 5 2 -4 8 -2 17 6 22 9 6
10 9 2 9 -6 0 -15 -5 -19 -11z"/>
<path d="M8260 7400 c20 -13 33 -13 25 0 -3 6 -14 10 -23 10 -15 0 -15 -2 -2
-10z"/>
<path d="M1626 7320 c-10 -28 -22 -47 -27 -44 -5 3 -6 -2 -3 -10 3 -9 1 -16
-6 -16 -6 0 -9 -4 -6 -9 8 -12 -4 -42 -14 -36 -5 3 -6 -5 -2 -17 3 -14 1 -19
-6 -14 -8 5 -10 1 -5 -10 5 -13 3 -15 -7 -9 -9 5 -11 4 -6 -4 10 -16 -3 -53
-16 -45 -7 4 -8 2 -4 -5 9 -14 -2 -53 -14 -46 -4 3 -11 -2 -14 -11 -9 -24 -7
-31 4 -14 5 8 10 11 10 5 0 -13 -20 -43 -20 -30 0 13 -20 -17 -20 -30 0 -5 5
-3 11 5 9 12 10 12 5 -3 -3 -10 -6 -21 -6 -23 0 -3 -4 -2 -10 1 -6 3 -7 -1 -4
-9 3 -9 1 -16 -5 -16 -6 0 -8 -7 -4 -17 4 -10 2 -14 -4 -10 -7 5 -9 -1 -5 -15
4 -16 2 -19 -8 -13 -9 5 -11 4 -6 -4 9 -14 -2 -53 -13 -46 -5 2 -6 -6 -4 -19
4 -21 23 -28 206 -76 111 -29 274 -72 361 -96 88 -24 161 -42 161 -41 1 1 7
11 14 22 10 18 11 18 6 -5 -6 -25 -3 -27 57 -42 124 -31 504 -129 577 -149 40
-12 77 -17 82 -12 4 4 37 89 72 188 35 99 80 224 100 277 l35 97 -49 12 c-26
7 -46 16 -44 20 7 11 -21 18 -46 12 -16 -4 -20 -3 -15 6 6 9 0 10 -20 5 -17
-5 -25 -3 -21 3 10 15 -65 42 -163 58 -19 3 -76 19 -125 35 -50 16 -156 45
-235 65 -132 33 -293 75 -425 111 -28 8 -51 10 -53 5 -3 -10 -218 43 -237 59
-8 7 -16 -5 -29 -40z m1171 -872 c-3 -8 -6 -5 -6 6 -1 11 2 17 5 13 3 -3 4
-12 1 -19z"/>
<path d="M7751 7365 c-2 -24 14 -33 29 -17 13 14 12 15 -2 9 -9 -3 -19 -1 -22
6 -2 7 -5 8 -5 2z"/>
<path d="M6180 7340 c0 -3 22 -28 50 -55 27 -26 47 -52 45 -56 -3 -4 3 -13 13
-20 15 -13 16 -12 3 4 -7 9 -9 17 -3 17 14 0 33 -26 25 -34 -4 -4 1 -4 11 0
16 6 14 11 -17 38 -104 92 -127 112 -127 106z"/>
<path d="M6954 7329 c-10 -17 13 -36 27 -22 12 12 4 33 -11 33 -5 0 -12 -5
-16 -11z"/>
<path d="M7696 7333 c5 -5 12 -12 16 -18 4 -6 8 -2 8 8 0 9 -7 17 -17 17 -9 0
-12 -3 -7 -7z"/>
<path d="M6160 7323 c0 -5 19 -23 43 -42 l42 -34 -40 41 c-41 44 -45 47 -45
35z"/>
<path d="M6320 7310 c0 -5 5 -10 11 -10 5 0 7 5 4 10 -3 6 -8 10 -11 10 -2 0
-4 -4 -4 -10z"/>
<path d="M6845 7283 c-16 -14 -50 -44 -73 -65 l-44 -40 28 -29 c43 -45 58 -45
112 0 39 34 48 38 53 24 5 -14 12 -8 34 25 l28 43 -21 21 c-21 21 -22 21 -42
3 -12 -11 -42 -48 -67 -83 -25 -35 -47 -61 -50 -58 -3 3 5 20 19 38 86 116
100 188 23 121z m115 -48 c-7 -8 -17 -15 -22 -15 -6 0 -5 7 2 15 7 8 17 15 22
15 6 0 5 -7 -2 -15z"/>
<path d="M7650 7306 c0 -2 7 -7 16 -10 8 -3 12 -2 9 4 -6 10 -25 14 -25 6z"/>
<path d="M7720 7289 c0 -5 5 -7 10 -4 6 3 10 8 10 11 0 2 -4 4 -10 4 -5 0 -10
-5 -10 -11z"/>
<path d="M6357 7279 c7 -7 15 -10 18 -7 3 3 -2 9 -12 12 -14 6 -15 5 -6 -5z"/>
<path d="M7800 7265 c0 -8 2 -15 4 -15 2 0 6 7 10 15 3 8 1 15 -4 15 -6 0 -10
-7 -10 -15z"/>
<path d="M6377 7204 c-12 -12 3 -22 24 -17 16 4 17 8 7 14 -16 10 -23 11 -31
3z"/>
<path d="M8053 7116 c0 -6 -3 -18 -5 -26 -3 -8 -3 -12 -1 -7 3 4 9 5 14 2 5
-4 6 1 3 10 -4 11 -2 14 9 9 9 -3 13 -13 9 -26 -3 -15 -1 -19 7 -14 6 4 9 11
6 16 -3 5 -1 11 5 15 18 11 10 23 -18 27 -16 2 -29 -1 -29 -6z"/>
<path d="M6937 7063 c-4 -3 -7 -11 -7 -17 0 -6 5 -5 12 2 6 6 9 14 7 17 -3 3
-9 2 -12 -2z"/>
<path d="M6430 7047 c0 -2 15 -16 33 -33 l32 -29 -29 33 c-28 30 -36 37 -36
29z"/>
<path d="M8262 7004 l-37 -36 42 31 c23 17 44 27 47 22 4 -5 3 -11 -1 -13 -5
-2 -21 -18 -37 -36 -29 -31 -29 -32 -8 -32 12 0 22 6 22 14 0 8 15 29 33 47
18 19 24 30 15 26 -10 -3 -18 -2 -18 3 0 19 -21 10 -58 -26z"/>
<path d="M6520 6955 c13 -14 26 -25 28 -25 3 0 -5 11 -18 25 -13 14 -26 25
-28 25 -3 0 5 -11 18 -25z"/>
<path d="M7170 6958 c0 -9 5 -20 11 -23 17 -11 20 0 4 21 -13 17 -14 17 -15 2z"/>
<path d="M3106 6866 c-20 -50 -66 -176 -104 -281 -38 -104 -73 -199 -77 -210
-8 -17 -7 -18 7 -7 13 10 66 -1 304 -63 159 -41 299 -77 311 -81 12 -3 20 -11
17 -17 -2 -7 6 -13 21 -13 14 -1 23 2 20 6 -3 5 0 12 6 16 7 4 10 3 7 -2 -3
-5 0 -15 8 -22 11 -10 14 -10 14 0 0 9 3 9 10 -2 5 -8 10 -12 10 -8 0 4 21 -4
46 -18 26 -14 43 -20 38 -13 -4 7 8 4 27 -7 45 -27 81 -35 99 -24 8 5 21 5 33
-1 17 -10 17 -9 6 13 -7 13 -18 41 -25 63 -6 22 -16 39 -22 38 -5 -1 -7 8 -5
21 3 13 -2 28 -13 37 -16 13 -16 12 -5 -9 11 -21 11 -22 -8 -10 -11 6 -18 15
-15 19 2 4 -4 13 -13 20 -14 12 -15 11 -9 -11 7 -24 7 -25 -9 -5 -9 11 -21 19
-27 17 -5 -1 -15 1 -22 6 -31 26 -129 -3 -119 -35 6 -16 -14 -26 -23 -12 -4 7
-3 9 4 5 6 -4 11 1 10 11 0 10 14 56 31 102 36 95 125 410 118 417 -2 2 -73
24 -158 48 -132 37 -155 41 -160 28 -4 -11 -8 -12 -13 -4 -4 7 -15 12 -25 12
-10 0 -72 15 -139 33 l-121 33 -35 -90z m489 -634 c-3 -3 -11 0 -18 7 -9 10
-8 11 6 5 10 -3 15 -9 12 -12z m226 -19 c13 -16 12 -17 -3 -4 -10 7 -18 15
-18 17 0 8 8 3 21 -13z"/>
<path d="M6980 6946 c0 -5 9 -25 21 -46 16 -29 26 -36 44 -33 17 4 27 -3 45
-31 12 -20 31 -41 42 -47 18 -10 17 -5 -8 39 -16 28 -31 49 -34 48 -9 -5 -39
32 -32 40 4 3 -6 4 -21 2 -20 -4 -32 0 -42 16 -8 11 -15 17 -15 12z m50 -56
c0 -5 -2 -10 -4 -10 -3 0 -8 5 -11 10 -3 6 -1 10 4 10 6 0 11 -4 11 -10z m91
-75 c7 -13 3 -12 -10 5 -11 14 -21 30 -21 35 0 11 14 -7 31 -40z"/>
<path d="M7908 6908 c31 -33 43 -56 21 -42 -8 5 -8 1 0 -14 6 -12 17 -24 24
-28 9 -5 9 -4 0 7 -32 33 4 31 41 -3 23 -21 38 -15 28 11 -13 33 -63 84 -73
74 -10 -10 19 -47 43 -56 7 -2 10 -7 7 -10 -7 -9 -80 53 -74 62 2 5 -8 14 -23
20 -27 12 -27 12 6 -21z m63 -15 c13 -16 12 -17 -3 -4 -10 7 -18 15 -18 17 0
8 8 3 21 -13z"/>
<path d="M8220 6900 c-12 -16 -17 -30 -13 -30 5 0 22 14 38 30 22 22 25 30 13
30 -9 0 -26 -13 -38 -30z"/>
<path d="M6575 6890 c10 -11 20 -20 23 -20 3 0 -3 9 -13 20 -10 11 -20 20 -23
20 -3 0 3 -9 13 -20z"/>
<path d="M7194 6889 c-9 -15 11 -33 30 -26 9 4 13 13 10 22 -7 17 -30 20 -40
4z"/>
<path d="M7986 6807 c3 -10 9 -15 12 -12 3 3 0 11 -7 18 -10 9 -11 8 -5 -6z"/>
<path d="M7231 6753 c-26 -36 -40 -64 -37 -76 4 -15 2 -16 -10 -6 -8 6 -14 16
-14 22 0 18 -48 74 -68 80 -19 4 -19 3 -3 -32 44 -96 66 -126 82 -115 4 2 11
-5 14 -17 4 -12 34 -66 67 -121 36 -60 61 -113 63 -135 3 -27 1 -33 -8 -24 -6
6 -16 11 -21 11 -6 -1 -1 -9 11 -19 12 -10 25 -30 29 -45 5 -21 3 -26 -14 -26
-23 0 -49 26 -32 32 7 2 8 11 4 23 -7 17 -9 16 -16 -10 -5 -18 -4 -31 2 -33 6
-2 7 -9 4 -14 -5 -8 6 -9 34 -5 27 3 45 1 49 -6 4 -7 6 -43 4 -81 -3 -69 -3
-69 22 -62 21 5 32 -4 78 -56 30 -34 69 -77 87 -95 l33 -33 -7 -160 c-4 -88
-4 -160 0 -160 4 0 53 26 109 59 56 32 131 73 167 91 93 46 98 52 92 107 -3
25 -11 53 -18 62 -7 9 -112 153 -232 321 -120 168 -252 352 -293 410 -42 58
-81 104 -88 102 -7 -1 -10 2 -6 7 6 11 -22 61 -34 61 -4 0 -27 -26 -50 -57z
m64 -92 c3 -5 2 -12 -3 -15 -5 -3 -9 1 -9 9 0 17 3 19 12 6z"/>
<path d="M1389 6743 c-39 -108 -54 -141 -61 -137 -4 3 -5 -3 -1 -12 5 -13 3
-15 -7 -9 -9 5 -11 4 -6 -4 9 -15 -3 -53 -15 -46 -5 3 -6 0 -4 -8 3 -7 -18
-71 -46 -143 -55 -137 -91 -237 -87 -238 2 -1 46 -12 98 -25 52 -13 113 -32
135 -42 22 -9 132 -40 245 -68 113 -28 284 -73 380 -100 96 -27 209 -57 250
-66 41 -10 82 -21 90 -25 17 -9 185 -47 247 -56 42 -6 42 -6 61 37 11 24 29
76 41 114 13 39 52 150 87 249 36 98 64 179 62 180 -5 4 -475 131 -633 171
-136 35 -219 57 -415 110 -174 47 -399 105 -405 105 -4 0 -5 9 -2 20 8 30 -2
24 -14 -7z m1291 -523 c0 -5 -2 -10 -4 -10 -3 0 -8 5 -11 10 -3 6 -1 10 4 10
6 0 11 -4 11 -10z"/>
<path d="M7930 6766 c0 -2 8 -10 18 -17 15 -13 16 -12 3 4 -13 16 -21 21 -21
13z"/>
<path d="M7920 6706 c0 -2 8 -10 18 -17 15 -13 16 -12 3 4 -13 16 -21 21 -21
13z"/>
<path d="M6031 6433 c-75 -79 -82 -89 -77 -117 5 -29 5 -30 -9 -12 -14 19 -15
18 -15 -10 0 -23 -2 -26 -11 -14 -9 12 -10 11 -6 -7 4 -16 1 -20 -11 -16 -10
4 -13 2 -8 -5 10 -16 46 -15 46 1 0 9 2 9 8 0 4 -7 54 -15 125 -20 l117 -8 57
57 57 58 -69 71 c-39 39 -81 79 -95 89 l-26 18 -83 -85z m50 -9 c-5 -16 -10
-21 -10 -12 -1 18 10 51 15 45 2 -1 -1 -16 -5 -33z m-14 -56 c-3 -8 -6 -5 -6
6 -1 11 2 17 5 13 3 -3 4 -12 1 -19z"/>
<path d="M7276 6402 c-2 -4 2 -12 9 -19 10 -10 14 -9 18 2 6 14 -19 30 -27 17z"/>
<path d="M7218 6345 c2 -14 10 -25 17 -25 10 0 11 5 2 25 -15 32 -26 32 -19 0z"/>
<path d="M6891 6340 c0 -8 4 -22 9 -30 12 -18 12 -2 0 25 -6 13 -9 15 -9 5z"/>
<path d="M2811 6047 c-56 -160 -100 -292 -98 -293 2 -2 59 -19 127 -39 68 -20
127 -39 130 -44 3 -4 50 -18 105 -30 161 -36 388 -92 412 -101 20 -9 24 -4 45
62 22 69 24 71 56 72 31 1 32 -1 33 -39 2 -65 12 -90 39 -93 14 -1 31 2 38 6
19 13 35 89 23 111 -7 12 -5 30 4 57 14 39 14 39 66 38 28 -1 54 -6 58 -11 3
-5 22 -20 41 -33 40 -27 51 -41 44 -52 -3 -4 0 -8 6 -8 26 0 -8 -24 -88 -62
-104 -48 -164 -66 -212 -62 -39 3 -70 -10 -56 -23 5 -4 11 -2 13 5 4 9 12 5
29 -13 16 -17 24 -21 24 -11 0 18 20 26 42 15 11 -6 18 -4 22 7 3 9 13 14 20
11 8 -3 17 2 21 11 5 14 7 14 15 2 7 -10 10 -11 10 -2 0 6 7 12 15 12 8 0 15
4 15 8 0 5 12 14 26 21 20 9 30 9 40 0 12 -9 13 -9 9 3 -4 11 3 19 26 27 35
12 55 7 23 -6 -10 -5 -19 -14 -19 -22 0 -13 -17 -20 -52 -23 -7 -1 -13 -6 -13
-12 0 -6 -4 -5 -9 3 -7 11 -10 10 -15 -5 -3 -11 -20 -25 -38 -33 -51 -22 -81
-48 -66 -57 8 -5 7 -9 -5 -13 -16 -6 -16 -8 2 -23 19 -16 23 -15 79 21 32 21
73 52 90 69 31 30 111 179 90 166 -7 -4 -8 -2 -4 5 4 6 2 20 -5 29 -11 13 -8
12 9 -2 20 -17 22 -17 22 -2 0 29 -37 91 -82 137 -24 25 -34 34 -23 20 11 -14
22 -28 25 -31 12 -12 47 -67 53 -82 7 -20 -8 -25 -19 -7 -3 6 -15 9 -25 6 -12
-3 -20 2 -24 14 -4 11 -11 17 -16 14 -5 -4 -9 -1 -9 5 0 6 -5 8 -11 5 -5 -4
-18 -1 -27 7 -9 8 -29 20 -44 28 -16 7 -26 15 -23 18 2 3 11 -1 19 -7 10 -8
16 -9 21 -1 4 6 3 9 -2 8 -4 -1 -19 4 -32 11 -20 11 -25 11 -32 0 -7 -11 -9
-11 -9 2 0 14 -7 15 -47 8 -25 -5 -54 -16 -63 -24 -28 -25 -47 -17 -69 30 -44
94 -50 190 -17 286 8 21 10 37 6 34 -6 -4 -198 44 -512 128 l-126 33 -101
-289z m795 -279 c-1 -7 -5 -19 -9 -25 -5 -7 -4 -13 0 -13 5 0 15 6 22 13 10
10 11 9 6 -5 -14 -36 -52 -15 -40 22 7 22 24 28 21 8z m89 -48 c3 -5 -1 -10
-9 -10 -9 0 -16 5 -16 10 0 6 4 10 9 10 6 0 13 -4 16 -10z"/>
<path d="M7183 6315 c-3 -9 -3 -18 -1 -21 3 -3 8 4 11 16 6 23 -1 27 -10 5z"/>
<path d="M5846 6262 c-3 -5 1 -9 9 -9 8 0 12 4 9 9 -3 4 -7 8 -9 8 -2 0 -6 -4
-9 -8z"/>
<path d="M5960 6222 c-40 -10 -40 -11 -30 -38 9 -24 9 -25 -5 -14 -8 7 -15 21
-15 31 0 12 -7 19 -20 19 -11 0 -20 -4 -20 -10 0 -5 7 -7 15 -4 8 4 15 2 15
-4 0 -5 -7 -15 -15 -22 -21 -18 -19 -29 5 -23 12 3 20 0 20 -6 0 -7 -5 -9 -11
-5 -7 4 -10 -1 -7 -12 2 -13 10 -18 27 -16 15 2 21 0 16 -7 -3 -6 -11 -9 -16
-6 -15 10 -10 -4 13 -35 12 -17 28 -30 35 -30 16 0 33 40 33 76 0 14 4 23 9
20 5 -3 5 -26 0 -52 -5 -25 -7 -50 -4 -54 3 -5 1 -11 -4 -15 -5 -3 -8 -14 -6
-25 2 -12 0 -18 -4 -15 -5 3 -30 -27 -57 -65 -26 -39 -49 -70 -52 -70 -5 0 47
89 70 120 27 34 9 36 -51 5 -67 -34 -65 -25 3 14 l54 30 -39 41 c-23 24 -36
46 -33 53 4 7 4 9 -1 5 -4 -4 -16 -3 -26 3 -14 7 -19 7 -17 -3 2 -6 -4 -12
-12 -13 -8 -1 -14 -7 -12 -14 1 -7 -2 -10 -8 -6 -6 4 -4 15 6 31 9 13 15 27
12 29 -8 9 -39 -32 -41 -54 -1 -11 -6 -21 -12 -21 -5 0 -3 -5 5 -10 8 -5 43
-10 77 -10 34 0 64 -4 67 -8 3 -5 -30 -7 -73 -4 -88 5 -86 7 -97 -79 -7 -51
-7 -51 15 -39 13 6 25 9 27 7 3 -3 -8 -11 -25 -18 -25 -11 -32 -24 -50 -84
-31 -109 -43 -157 -38 -161 2 -2 25 3 50 12 41 14 52 24 93 90 25 41 48 74 51
74 2 0 -13 -29 -33 -66 -20 -36 -35 -67 -33 -68 2 -2 25 3 51 11 43 14 49 20
63 62 8 25 18 67 21 94 4 26 10 47 14 47 7 0 -13 -131 -25 -162 -9 -22 -14
-23 73 7 86 29 119 31 143 9 17 -15 17 -17 -4 -40 -14 -15 -35 -24 -58 -26
-28 -1 -35 -6 -31 -17 4 -10 7 -11 10 -3 2 7 18 11 35 11 18 -1 25 -3 15 -6
-9 -2 -19 -10 -22 -18 -3 -10 2 -9 24 3 16 9 25 18 20 20 -5 2 1 15 15 30 24
25 25 26 45 7 16 -14 17 -20 8 -27 -7 -4 -9 -8 -4 -8 5 0 3 -7 -4 -15 -9 -10
-9 -15 -1 -15 6 0 11 3 11 8 0 4 4 13 9 21 7 11 15 9 43 -13 39 -29 53 -32 65
-13 12 20 79 68 86 61 11 -11 47 8 89 47 49 46 65 48 118 14 36 -23 52 -45 33
-45 -5 0 -13 -11 -19 -25 -9 -19 -9 -27 1 -35 19 -15 38 14 37 55 -1 19 3 37
8 40 6 3 11 23 11 43 1 23 3 29 6 15 3 -14 12 -23 22 -23 19 0 61 -39 61 -57
0 -21 -39 -45 -65 -41 -15 3 -25 1 -25 -7 0 -6 -11 -22 -24 -34 -20 -19 -27
-21 -46 -11 -16 9 -25 9 -33 1 -17 -17 -43 -13 -74 13 -47 39 -68 41 -129 10
-30 -15 -53 -32 -51 -37 1 -5 53 -32 114 -60 62 -29 112 -54 112 -57 0 -3 -41
-18 -92 -34 -50 -17 -129 -43 -175 -59 l-83 -30 21 -22 c14 -15 18 -25 11 -30
-6 -3 -11 -2 -11 3 0 5 -12 17 -26 27 -26 16 -31 15 -229 -50 -111 -36 -210
-71 -219 -78 -13 -10 -14 -16 -3 -34 90 -160 105 -178 147 -186 21 -4 20 -4
-7 -6 -29 -1 -36 5 -74 64 -23 36 -43 65 -45 65 -14 0 -44 -97 -97 -309 -48
-190 -65 -246 -77 -245 -82 10 -160 29 -160 40 0 10 16 11 68 7 95 -7 97 -4
166 250 31 114 66 223 76 243 l20 34 -53 51 c-28 27 -82 68 -120 91 -64 38
-68 40 -90 24 -57 -41 -69 -45 -33 -12 22 20 37 37 35 39 -2 2 -21 13 -42 25
l-38 22 2 -50 c2 -27 -1 -53 -6 -57 -4 -5 -6 -3 -2 2 8 16 -11 43 -20 29 -5
-6 -17 -16 -28 -23 -19 -11 -19 -12 4 -5 17 4 22 3 19 -7 -3 -8 -12 -13 -21
-13 -9 1 -15 -2 -12 -6 7 -11 -24 -22 -37 -13 -7 4 -8 1 -3 -7 6 -10 4 -12 -8
-7 -14 5 -22 -3 -16 -15 1 -2 -6 -20 -15 -42 -9 -21 -16 -48 -16 -59 0 -51
-23 -144 -41 -167 -12 -14 -18 -20 -15 -14 12 24 16 74 6 74 -6 0 -9 4 -6 8 3
5 -1 9 -9 9 -8 0 -11 -5 -8 -10 4 -6 0 -8 -10 -4 -10 3 -17 2 -17 -4 0 -6 8
-9 18 -8 35 3 36 -2 7 -21 -16 -11 -25 -20 -18 -20 7 0 10 -7 7 -15 -4 -8 0
-23 7 -32 12 -15 12 -16 -3 -10 -9 3 -18 1 -21 -6 -2 -6 -17 -12 -33 -13 -16
-1 -33 -3 -37 -3 -5 -1 -5 -5 -2 -11 3 -5 1 -10 -4 -10 -6 0 -11 -7 -11 -15 0
-8 -8 -15 -17 -15 -9 0 -14 -3 -11 -6 10 -9 89 16 83 26 -4 6 -1 10 4 10 25 0
9 -31 -19 -36 -16 -4 -28 -10 -25 -14 3 -4 -7 -20 -22 -36 -15 -16 -21 -30
-14 -32 7 -2 6 -8 -4 -18 -8 -9 -19 -12 -25 -9 -5 3 -10 2 -10 -4 0 -5 9 -13
20 -16 11 -3 20 -12 20 -20 0 -8 -7 -11 -20 -8 -11 3 -20 0 -20 -6 0 -6 9 -11
20 -11 20 0 20 -1 4 -31 -15 -30 -15 -31 1 -26 9 4 14 3 10 -3 -3 -6 0 -10 7
-10 7 -1 0 -8 -15 -16 l-28 -15 23 -19 c13 -11 17 -19 11 -20 -7 0 -13 5 -13
10 0 6 -7 10 -15 10 -8 0 -15 5 -15 12 0 6 -3 9 -6 6 -3 -4 3 -19 13 -34 10
-16 12 -25 6 -21 -8 5 -13 3 -13 -3 0 -6 -4 -9 -9 -6 -5 3 -11 -1 -15 -9 -3
-8 -2 -15 3 -15 4 0 8 -13 7 -29 -1 -21 -5 -27 -16 -23 -9 3 -6 -2 5 -11 18
-15 18 -16 3 -17 -16 0 -23 -11 -19 -33 0 -4 -2 -6 -6 -6 -22 4 -35 -3 -30
-15 4 -10 0 -12 -15 -8 -11 3 -24 -1 -29 -9 -11 -18 -11 -32 0 -25 5 4 12 0
15 -6 3 -9 5 -8 3 2 -1 8 3 15 8 15 6 0 9 -5 7 -12 -2 -8 4 -11 15 -7 10 3 7
-1 -7 -9 -19 -12 -28 -13 -40 -4 -8 6 -7 2 4 -10 18 -22 18 -22 -3 -18 -11 2
-27 7 -34 11 -9 6 -9 5 0 -8 14 -16 8 -28 -15 -28 -8 0 -12 6 -8 15 3 8 2 15
-2 15 -4 0 -8 11 -8 25 -1 14 2 22 7 19 5 -3 9 -1 9 4 0 6 -6 12 -13 15 -8 3
-14 -4 -15 -20 -1 -13 -7 -33 -13 -45 -8 -15 -8 -19 0 -14 6 4 11 2 11 -3 0
-6 -4 -11 -10 -11 -5 0 -10 -4 -10 -10 0 -5 8 -7 18 -4 16 5 16 5 -1 -6 -19
-13 -41 -4 -31 12 4 6 2 8 -3 5 -8 -5 -7 -20 1 -49 12 -39 11 -44 -14 -82 -17
-24 -25 -47 -22 -59 3 -14 1 -18 -6 -13 -7 4 -12 2 -12 -3 0 -6 5 -11 11 -11
5 0 8 -4 5 -9 -3 -5 -15 -7 -26 -4 -12 3 -20 0 -20 -6 0 -7 5 -9 10 -6 6 3 10
1 10 -4 0 -14 -13 -14 -28 1 -9 9 -12 9 -12 0 0 -7 -3 -11 -7 -11 -5 1 -15 1
-23 0 -12 -1 -12 -3 -2 -10 10 -6 10 -10 -2 -20 -11 -9 -16 -9 -22 0 -5 8 -3
10 7 4 8 -5 11 -4 6 0 -14 16 -45 15 -51 -1 -4 -10 0 -14 11 -12 9 2 18 -4 20
-12 3 -10 2 -11 -4 -3 -6 9 -15 7 -33 -7 -21 -16 -22 -21 -13 -42 7 -12 12
-17 12 -10 1 6 10 12 22 12 11 0 17 -5 14 -10 -4 -6 -10 -8 -13 -6 -4 2 -13
-7 -19 -21 -12 -25 -12 -25 9 -7 21 19 21 19 7 -5 -11 -18 -11 -25 -1 -28 15
-6 16 -35 1 -50 -8 -8 -8 -13 0 -17 6 -4 11 -2 11 4 0 6 5 8 11 4 8 -4 3 -12
-12 -20 -13 -7 -19 -13 -13 -14 19 0 11 -33 -13 -57 -13 -12 -23 -26 -23 -31
0 -5 -10 -17 -22 -28 -17 -15 -20 -16 -16 -3 6 14 3 15 -18 5 -13 -6 -24 -16
-24 -23 0 -6 -5 -15 -12 -19 -7 -4 -8 -3 -4 4 12 20 -20 13 -39 -8 -10 -12
-25 -18 -32 -16 -7 3 -13 1 -13 -3 0 -17 -29 -20 -44 -6 -17 17 -30 20 -21 5
3 -5 0 -10 -7 -10 -9 0 -9 -3 2 -10 9 -6 10 -10 3 -10 -6 0 -15 5 -18 10 -4 7
-13 7 -24 0 -12 -6 -22 -5 -29 2 -9 9 -12 8 -12 -6 0 -12 -5 -16 -15 -12 -9 3
-18 -1 -22 -9 -3 -9 -13 -13 -22 -11 -9 3 -23 1 -31 -4 -8 -5 -11 -10 -7 -10
4 0 3 -9 -3 -19 -7 -14 -6 -21 3 -24 9 -4 8 -8 -3 -16 -13 -9 -12 -11 4 -11
15 0 17 5 13 29 -6 27 -4 29 17 25 16 -3 26 3 35 19 l11 22 -6 -22 c-3 -13 -1
-23 5 -23 6 0 11 -5 11 -11 0 -8 -4 -8 -13 -1 -7 6 -17 8 -23 4 -17 -12 -45
-62 -34 -62 5 0 9 -5 8 -11 -4 -18 45 -18 66 0 11 9 16 10 12 4 -9 -16 16 -17
30 -3 7 7 19 7 35 1 25 -9 232 -7 282 3 15 3 37 8 50 10 62 13 81 18 96 25 9
5 25 7 36 5 10 -1 24 1 30 5 5 5 26 12 45 16 19 4 51 14 70 23 19 8 38 14 43
14 4 -1 7 3 7 9 0 6 7 9 15 5 8 -3 15 -1 15 4 0 5 6 7 14 4 8 -3 26 2 40 11
14 10 26 15 26 12 0 -3 12 0 27 8 15 8 30 12 35 9 4 -3 8 0 8 6 0 6 4 8 10 5
5 -3 18 -1 29 4 14 8 21 8 24 -2 3 -6 6 -3 6 8 1 15 3 17 10 6 6 -9 22 -12 49
-10 29 3 38 1 35 -8 -3 -7 -9 -11 -13 -8 -4 3 -10 -2 -14 -10 -3 -8 -14 -15
-24 -15 -10 0 -22 -4 -28 -10 -5 -5 -94 -39 -198 -75 -103 -36 -194 -69 -202
-73 -10 -5 31 -31 130 -82 l144 -75 29 -132 c34 -154 44 -142 -97 -119 -47 8
-88 12 -91 10 -4 -2 -9 -12 -12 -23 -4 -16 2 -20 37 -25 62 -9 299 -34 399
-41 l87 -7 0 26 c0 22 5 26 29 26 l28 0 6 -82 c4 -46 7 -102 7 -125 0 -24 5
-43 10 -43 7 0 9 72 8 204 l-3 205 30 -7 c17 -3 126 -24 244 -47 l214 -41 -1
-184 c-1 -102 1 -179 4 -172 3 6 13 12 22 12 11 0 13 3 6 8 -7 4 -11 56 -12
145 l0 137 23 0 c13 0 26 6 28 13 4 9 6 9 6 0 1 -19 81 -17 81 1 0 9 16 17 43
21 23 3 55 11 71 17 25 10 27 13 10 18 -16 6 -14 8 9 12 l27 5 -1 -71 c-1 -71
-15 -157 -18 -108 0 12 -5 22 -11 22 -5 0 -10 9 -10 20 0 28 -18 25 -26 -5 -8
-33 -23 -23 -16 12 3 21 2 25 -7 17 -7 -6 -13 -21 -14 -33 -1 -15 -6 -19 -19
-15 -15 5 -18 -1 -18 -40 l0 -45 37 2 c30 2 38 -2 41 -17 3 -11 0 -16 -7 -12
-6 4 -11 3 -11 -3 0 -13 19 -25 27 -17 4 3 7 16 8 29 2 28 35 37 35 8 0 -11
-8 -25 -17 -30 -16 -9 -16 -10 5 -11 34 0 27 -28 -10 -39 l-33 -9 33 -1 c20
-1 32 -6 32 -15 0 -10 -25 -18 -85 -27 -77 -11 -85 -14 -85 -34 0 -25 -30 -35
-101 -35 -61 0 -38 26 34 38 l62 11 -55 -5 c-30 -2 -85 -7 -122 -11 l-68 -6 0
72 c0 56 3 71 15 71 8 0 15 6 15 14 0 10 -27 14 -121 15 -77 1 -119 -2 -115
-8 4 -6 42 -7 96 -4 l90 6 0 -31 c0 -30 -1 -30 -32 -21 -18 5 -34 9 -36 9 -2
0 -1 -17 2 -37 3 -21 5 -39 6 -41 0 -4 43 9 50 15 2 2 -1 8 -9 12 -10 7 -10 9
3 14 12 5 15 -10 18 -104 l3 -109 -30 1 c-17 1 -22 3 -12 6 9 2 14 9 11 15 -4
6 0 14 7 19 10 6 8 9 -9 9 -13 0 -20 -4 -17 -10 4 -6 -1 -7 -11 -3 -13 5 -15
2 -10 -14 6 -18 1 -21 -50 -27 -61 -7 -75 -3 -56 16 17 17 15 38 -3 38 -9 0
-12 -6 -9 -15 4 -8 1 -15 -4 -15 -6 0 -12 8 -14 17 -2 14 -6 12 -20 -8 -16
-25 -16 -26 8 -21 14 2 24 0 24 -7 0 -6 -13 -11 -30 -11 l-30 0 -2 73 c-4 214
-4 222 14 219 9 -1 19 2 23 8 7 11 -15 11 -60 0 -16 -4 -23 -8 -14 -9 14 -1
16 -22 18 -145 2 -130 0 -145 -16 -155 -15 -8 -10 -10 26 -11 l44 0 -6 -67
c-4 -38 -7 -86 -7 -107 l0 -39 -192 6 c-106 4 -260 15 -343 26 -82 11 -151 18
-153 17 -7 -8 11 -56 28 -74 25 -26 111 -41 288 -49 90 -4 145 -10 147 -17 3
-10 15 -1546 15 -1958 l0 -148 40 0 40 0 0 56 c0 31 4 53 9 49 5 -3 12 -1 16
5 3 5 -1 10 -9 10 -9 0 -16 9 -16 20 0 16 7 20 31 20 16 0 28 4 24 9 -3 5 -17
8 -30 5 -14 -2 -25 0 -25 5 0 5 15 12 33 14 l32 4 -33 1 c-40 2 -33 22 8 22
27 0 28 -1 29 -55 0 -43 -3 -53 -14 -48 -8 3 -15 0 -15 -6 0 -6 7 -11 15 -11
8 0 15 -5 15 -10 0 -7 -6 -7 -18 -1 -25 13 -54 -4 -32 -19 8 -5 23 -7 33 -4
14 4 17 -1 17 -30 l0 -36 2011 0 2012 0 -7 133 c-11 219 -31 354 -70 491 -28
96 -31 110 -17 102 8 -6 26 -73 23 -88 -1 -5 2 -8 8 -8 5 0 7 -7 4 -15 -5 -11
-2 -14 12 -9 16 6 17 5 7 -7 -7 -7 -13 -16 -13 -21 0 -4 6 -6 13 -4 6 1 9 1 5
-1 -12 -7 -9 -43 3 -43 5 0 7 -5 3 -11 -3 -6 0 -15 7 -20 10 -6 11 -9 2 -9 -7
0 -13 -5 -13 -11 0 -5 4 -8 8 -5 4 2 9 -28 10 -67 2 -40 7 -112 12 -162 5 -50
10 -125 10 -167 l0 -78 68 0 67 0 1 73 c1 39 4 112 9 162 11 127 -3 185 -67
276 -39 57 -118 212 -118 234 0 1 14 8 30 15 49 20 53 41 21 91 -35 55 -240
255 -343 336 -74 59 -241 173 -253 173 -3 0 -39 14 -80 31 -58 25 -75 36 -76
53 -1 17 -2 18 -6 3 -12 -45 -44 -7 -82 98 -61 166 -93 237 -101 224 -5 -8 -8
-3 -8 12 0 13 -14 58 -31 99 -57 133 -132 362 -125 383 3 11 2 17 -2 14 -5 -3
-16 17 -26 44 -9 27 -15 49 -13 49 1 0 23 -35 48 -77 25 -43 53 -87 62 -98 12
-14 11 -10 -3 15 -56 98 -115 220 -111 225 3 3 25 -2 49 -10 23 -8 48 -15 54
-14 6 0 -13 9 -43 20 -29 10 -60 24 -67 30 -7 6 -29 61 -48 123 -20 61 -72
221 -117 356 -44 135 -81 259 -82 276 -1 18 -6 30 -11 26 -5 -3 -6 6 -3 19 3
13 1 33 -4 44 -7 15 -8 13 -3 -10 3 -16 3 -27 -1 -24 -6 7 -39 117 -100 334
-18 66 -59 208 -90 315 -31 107 -72 247 -90 310 -18 63 -54 169 -78 234 l-45
119 39 86 c92 199 172 460 203 661 17 111 36 330 36 412 l0 50 -44 -25 c-25
-14 -42 -19 -40 -12 3 7 -2 15 -10 18 -9 4 -16 1 -16 -6 -1 -7 -20 -21 -43
-33 -23 -11 -109 -61 -192 -110 -82 -50 -195 -117 -250 -149 -55 -32 -111 -67
-125 -77 -42 -32 -162 -108 -171 -108 -5 0 -9 -17 -10 -37 0 -21 -2 -45 -4
-53 -3 -14 -29 -152 -43 -235 -4 -22 -11 -39 -15 -39 -50 8 -127 28 -127 33 0
8 47 172 56 194 4 10 -6 16 -37 21 l-41 7 7 47 c4 26 11 55 16 64 11 21 0 80
-15 75 -6 -2 -12 -13 -14 -25 -3 -16 1 -20 12 -16 12 5 13 0 6 -28 -5 -18 -26
-100 -45 -182 -20 -81 -41 -160 -47 -175 -6 -14 -12 -28 -12 -31 -5 -28 -31
-90 -38 -90 -5 0 -6 -4 -3 -10 3 -5 1 -10 -4 -10 -6 0 -11 -5 -11 -12 0 -6 -6
-19 -14 -27 -8 -9 -16 -23 -18 -31 -2 -8 -9 -21 -16 -28 -7 -8 -10 -18 -6 -23
3 -5 2 -8 -3 -7 -4 2 -9 -1 -10 -5 -1 -5 -12 -17 -24 -28 -12 -11 -23 -28 -24
-39 -1 -11 -11 -28 -24 -39 -12 -11 -21 -22 -19 -24 6 -10 -137 -179 -202
-240 -99 -93 -257 -210 -274 -204 -9 4 -18 1 -22 -5 -5 -7 -2 -8 6 -3 8 5 11
4 7 -2 -7 -11 -175 -95 -213 -107 -19 -6 -22 -2 -26 29 -3 24 0 35 9 35 7 0
66 27 129 60 109 57 117 59 130 43 12 -17 13 -16 14 9 0 19 9 32 36 48 20 11
43 19 51 16 8 -3 11 -1 8 4 -3 6 10 20 30 31 20 12 34 23 32 26 -5 4 -67 -29
-110 -59 -16 -12 -35 -17 -45 -13 -9 3 -13 3 -9 -1 8 -9 -80 -63 -178 -111
-137 -66 -401 -141 -552 -158 -54 -6 -63 -5 -63 9 0 12 10 16 38 17 l37 2 -34
6 c-51 9 -49 27 3 35 41 6 96 40 202 125 11 9 2 -1 -20 -22 -23 -22 -54 -47
-71 -58 -38 -24 -21 -25 83 -3 105 21 177 46 308 107 l111 51 40 170 c22 94
38 173 37 175 -4 5 -60 -44 -206 -179 -169 -157 -249 -225 -242 -206 3 9 9 16
14 16 7 0 187 160 344 307 l90 83 -35 1 c-26 1 -28 3 -9 6 52 8 53 11 20 60
l-32 48 36 -40 c19 -22 35 -43 36 -47 0 -5 4 -8 10 -8 5 0 7 6 5 13 -3 6 4 26
15 42 11 17 20 25 20 20 0 -6 -7 -21 -16 -33 -9 -13 -14 -25 -12 -28 3 -2 36
9 74 24 l69 28 3 70 c2 38 0 85 -3 104 -7 35 -7 35 -22 13 -9 -13 -20 -23 -25
-23 -5 0 -2 7 6 16 9 8 16 24 16 35 0 11 13 51 30 90 l29 69 -177 2 c-205 1
-198 1 -208 11 -5 4 83 7 195 7 160 -1 206 1 212 12 7 10 9 10 9 1 0 -10 41
-13 173 -13 94 0 177 4 183 8 13 9 69 173 88 262 8 36 15 54 16 40 1 -23 2
-23 9 -5 37 89 40 499 6 628 -13 51 -15 71 -6 80 13 13 15 31 2 23 -7 -5 -33
95 -26 102 10 11 35 -36 40 -76 4 -26 13 -65 21 -86 9 -23 20 -107 25 -195 6
-86 15 -160 21 -166 17 -16 1 237 -22 345 -24 114 -24 122 1 50 16 -50 18 -52
13 -15 -3 22 -7 62 -9 89 -1 26 -8 52 -14 56 -14 8 -250 20 -381 19 l-85 0 80
-75 c142 -134 170 -155 189 -141 13 10 18 34 23 105 3 50 10 92 15 92 4 0 6
-17 3 -37 -3 -21 -7 -65 -8 -98 -2 -59 -2 -59 28 -65 20 -3 31 -12 33 -25 2
-18 -2 -20 -42 -17 -47 4 -57 -4 -77 -67 -5 -17 -6 -7 -2 26 l5 52 -33 5 c-19
3 -47 8 -64 10 -16 2 -4 3 28 2 31 -2 57 -1 57 0 0 2 -21 23 -47 46 -27 24
-82 75 -123 114 l-75 72 -207 4 c-150 4 -208 2 -208 -6 0 -8 -2 -8 -8 0 -8 13
-51 22 -72 16z m188 -51 c-27 -38 -129 -144 -134 -139 -4 5 132 153 144 157 2
1 -3 -7 -10 -18z m-128 -11 c0 -5 -5 -10 -11 -10 -5 0 -7 5 -4 10 3 6 8 10 11
10 2 0 4 -4 4 -10z m810 -60 c0 -5 7 -7 15 -4 11 5 15 -1 15 -20 0 -19 -5 -26
-20 -26 -11 0 -20 3 -20 8 0 4 -3 17 -6 30 -4 13 -2 22 5 22 6 0 11 -4 11 -10z
m-703 -87 c-20 -2 -52 -2 -70 0 -17 2 0 4 38 4 39 0 53 -2 32 -4z m136 -10
c-13 -2 -35 -2 -50 0 -16 2 -5 4 22 4 28 0 40 -2 28 -4z m155 -10 c-16 -2 -40
-2 -55 0 -16 2 -3 4 27 4 30 0 43 -2 28 -4z m125 -10 c-13 -2 -33 -2 -45 0
-13 2 -3 4 22 4 25 0 35 -2 23 -4z m-703 -47 c0 -2 -7 -7 -16 -10 -8 -3 -12
-2 -9 4 6 10 25 14 25 6z m790 -46 c-19 -17 -64 -51 -100 -77 -36 -25 -76 -55
-90 -67 -16 -13 -19 -14 -9 -3 17 20 221 176 229 176 3 0 -11 -13 -30 -29z
m-509 -83 c-10 -9 -11 -8 -5 6 3 10 9 15 12 12 3 -3 0 -11 -7 -18z m59 19 c0
-2 -8 -10 -17 -17 -16 -13 -17 -12 -4 4 13 16 21 21 21 13z m17 -62 c-3 -3
-12 -4 -19 -1 -8 3 -5 6 6 6 11 1 17 -2 13 -5z m-432 -48 c11 -9 17 -16 14
-16 -12 0 -68 47 -62 53 3 4 11 0 17 -8 6 -8 20 -21 31 -29z m2220 16 c-17
-15 -105 -63 -105 -58 0 3 24 19 53 36 52 30 69 37 52 22z m-120 -70 c-18 -15
-85 -54 -85 -48 0 3 19 16 43 30 43 26 59 33 42 18z m-1239 -59 c-8 -15 -15
-25 -16 -21 0 12 23 58 27 54 3 -2 -2 -17 -11 -33z m1144 2 c0 -2 -10 -9 -22
-15 -22 -11 -22 -10 -4 4 21 17 26 19 26 11z m-870 -51 c0 -2 -13 -4 -30 -4
-16 0 -30 4 -30 8 0 5 14 7 30 4 17 -2 30 -6 30 -8z m-331 -93 c-12 -28 -24
-50 -26 -48 -2 2 6 27 18 56 12 28 24 50 26 48 2 -2 -6 -27 -18 -56z m1019 35
c-16 -12 -18 -32 -18 -171 0 -135 -2 -156 -15 -151 -10 4 -37 -24 -86 -92 -40
-53 -83 -112 -96 -129 -32 -44 -42 -41 -37 10 3 23 -8 -7 -24 -68 -30 -112
-101 -283 -167 -401 l-36 -65 -19 24 c-19 24 -19 24 30 116 26 51 54 98 60
106 7 8 10 21 7 30 -4 8 -2 17 2 20 5 2 11 15 15 28 3 13 13 40 21 61 14 32
18 36 31 25 20 -17 34 3 34 49 0 24 -5 32 -17 33 -10 0 -13 3 -6 6 9 3 9 9 1
22 -8 14 -6 33 11 82 11 35 24 85 27 111 6 40 4 47 -12 51 -14 3 -14 4 2 2 19
-2 23 5 28 55 5 40 15 69 34 93 31 41 39 44 45 20 4 -14 5 -13 6 4 1 16 26 38
92 82 50 34 93 61 97 61 4 0 -1 -7 -10 -14z m-1077 -173 c-12 -20 -14 -14 -5
12 4 9 9 14 11 11 3 -2 0 -13 -6 -23z m-925 -12 c-6 -10 -56 -230 -56 -247 0
-11 21 -14 88 -16 l87 -1 -105 -7 c-58 -3 -116 -3 -130 1 -23 7 -23 7 7 8 37
1 37 1 74 177 12 57 26 101 31 98 4 -3 6 -9 4 -13z m1093 -58 c0 -5 -5 -17
-10 -28 -9 -19 -9 -19 -5 2 2 12 -1 24 -8 27 -6 2 -3 5 7 5 9 1 17 -2 16 -6z
m-854 -23 c3 -5 1 -10 -4 -10 -6 0 -11 5 -11 10 0 6 2 10 4 10 3 0 8 -4 11
-10z m-128 -32 c-3 -8 -6 -5 -6 6 -1 11 2 17 5 13 3 -3 4 -12 1 -19z m113
-156 c0 -4 -16 -6 -35 -4 -19 2 -35 6 -35 8 0 2 16 4 35 4 19 0 35 -4 35 -8z
m160 3 c0 -2 -9 -9 -20 -15 -12 -6 -20 -7 -20 -1 0 5 8 12 18 14 9 3 18 5 20
6 1 0 2 -1 2 -4z m-59 -62 c13 -16 12 -17 -3 -4 -10 7 -18 15 -18 17 0 8 8 3
21 -13z m1119 -64 c-15 -28 -5 -53 20 -46 10 3 21 0 24 -7 2 -6 5 -2 5 9 1 15
3 17 10 7 7 -11 9 -11 14 2 4 10 1 16 -7 16 -7 0 -19 6 -25 14 -10 12 -8 13
16 7 19 -5 27 -14 26 -27 -5 -63 -17 -126 -27 -139 -6 -7 -35 -17 -63 -20 -49
-5 -53 -4 -53 15 0 14 4 19 12 14 7 -5 8 -3 3 5 -4 7 -2 48 5 92 11 67 15 79
32 79 16 0 17 -3 8 -21z m-1774 -201 c-23 -46 -36 -65 -36 -50 0 28 61 152 67
135 2 -7 -12 -45 -31 -85z m1027 57 c-9 -19 -18 -33 -21 -31 -4 5 26 66 33 66
3 0 -3 -16 -12 -35z m-183 -70 c14 -18 13 -19 -1 -8 -14 11 -21 5 -52 -40 -21
-30 -37 -56 -37 -60 0 -3 12 -8 28 -10 17 -3 14 -4 -8 -2 -30 2 -40 -4 -67
-38 -18 -21 -33 -35 -33 -30 0 5 11 20 25 33 34 32 32 38 -12 43 -35 4 -34 4
6 3 42 0 45 2 86 59 41 57 42 60 27 84 -16 26 -16 26 4 6 10 -11 26 -29 34
-40z m-1023 23 c2 -17 0 -19 -7 -8 -5 8 -6 18 -4 22 8 12 10 10 11 -14z m696
-125 c-18 -2 -48 -2 -65 0 -18 2 -4 4 32 4 36 0 50 -2 33 -4z m1147 -13 c0 -5
-8 -10 -17 -10 -15 0 -16 2 -3 10 19 12 20 12 20 0z m16 -28 c-17 -16 -18 -16
-5 5 7 12 15 20 18 17 3 -2 -3 -12 -13 -22z m-943 -49 c-7 -2 -21 -2 -30 0
-10 3 -4 5 12 5 17 0 24 -2 18 -5z m75 0 c-10 -2 -26 -2 -35 0 -10 3 -2 5 17
5 19 0 27 -2 18 -5z m700 -18 c-3 -3 -9 2 -12 12 -6 14 -5 15 5 6 7 -7 10 -15
7 -18z m-88 -34 c0 -6 -4 -13 -10 -16 -5 -3 -10 1 -10 9 0 9 5 16 10 16 6 0
10 -4 10 -9z m410 -61 c-6 -11 -13 -20 -16 -20 -2 0 0 9 6 20 6 11 13 20 16
20 2 0 0 -9 -6 -20z m789 -53 c1 -5 -3 -5 -9 -2 -5 3 -10 16 -9 28 0 21 1 21
9 2 5 -11 9 -24 9 -28z m-829 -8 c-6 -10 -13 -19 -16 -19 -2 0 0 8 5 19 6 10
7 22 3 26 -4 5 -1 5 6 1 9 -5 9 -12 2 -27z m-490 7 c0 -2 -8 -10 -17 -17 -16
-13 -17 -12 -4 4 13 16 21 21 21 13z m237 -21 c0 -8 -4 -12 -9 -9 -5 3 -6 10
-3 15 9 13 12 11 12 -6z m-98 -20 c3 -17 2 -17 -13 -3 -19 20 -21 31 -3 26 6
-3 14 -13 16 -23z m1200 -12 c6 -21 75 -258 152 -528 77 -269 154 -533 171
-585 64 -205 161 -498 184 -559 13 -35 24 -68 24 -75 -1 -46 -291 712 -294
766 0 16 -5 28 -10 28 -4 0 -6 7 -2 15 3 8 2 15 -3 15 -13 0 -34 111 -23 122
14 14 4 38 -17 39 -12 0 -12 2 4 9 20 9 20 9 -1 15 -15 5 -20 13 -17 30 3 12
0 26 -6 29 -6 4 -11 12 -11 17 0 6 4 8 8 5 5 -3 4 10 -2 29 -6 18 -13 32 -16
30 -3 -2 -6 14 -5 35 1 22 -1 37 -4 34 -3 -2 -13 30 -22 73 -32 145 -55 227
-66 230 -5 2 -8 15 -5 30 4 19 2 24 -8 18 -9 -5 -10 -2 -6 11 3 11 -1 39 -9
64 -14 40 -15 41 -10 10 4 -29 3 -32 -6 -17 -6 11 -8 32 -5 48 3 17 2 28 -2
25 -5 -3 -9 0 -9 7 0 7 -3 25 -7 40 -10 41 9 32 23 -10z m-1110 1 c12 -11 8
-12 -22 -8 -33 4 -36 2 -40 -23 -2 -17 -4 -11 -4 14 0 41 1 42 26 37 14 -4 32
-12 40 -20z m236 7 c-9 -8 -36 -10 -30 -2 2 4 11 8 20 8 8 0 13 -3 10 -6z
m-390 -21 c-4 -6 -1 -19 7 -28 12 -15 11 -16 -4 -3 -20 15 -24 41 -7 41 5 0 7
-5 4 -10z m-1205 -92 c0 -56 -4 -88 -9 -79 -12 18 -126 9 -149 -12 -9 -9 -39
-60 -67 -114 -27 -54 -53 -100 -56 -103 -4 -3 -16 -24 -27 -46 -12 -23 -27
-48 -35 -55 -7 -8 -22 -30 -34 -49 -32 -52 -86 -100 -128 -114 -47 -16 -192
-20 -228 -7 -15 6 -29 21 -33 36 -8 31 -17 31 -44 3 -16 -18 -20 -19 -14 -5 3
10 15 22 26 28 10 6 23 21 28 34 8 22 13 23 105 23 64 0 101 5 112 13 40 34
193 293 193 328 0 6 4 11 8 11 8 0 36 60 33 73 0 4 4 7 9 7 6 0 10 6 10 13 0
8 15 31 34 53 l34 39 111 -2 c63 -1 111 2 111 8 0 5 2 9 5 9 3 0 5 -42 5 -92z
m1186 60 c14 -17 15 -20 2 -9 -9 7 -22 10 -28 6 -11 -7 -14 8 -3 18 9 9 7 10
29 -15z m345 -1 c-10 -9 -11 -8 -5 6 3 10 9 15 12 12 3 -3 0 -11 -7 -18z
m-511 0 c0 -2 -12 -14 -27 -28 l-28 -24 24 28 c23 25 31 32 31 24z m257 -19
c-3 -8 -6 -5 -6 6 -1 11 2 17 5 13 3 -3 4 -12 1 -19z m-27 -53 c33 -38 34 -39
3 -12 -17 16 -34 29 -37 28 -3 -1 -6 1 -6 4 0 3 0 10 0 17 0 6 1 9 3 7 1 -2
18 -22 37 -44z m10 23 c0 -6 7 -8 14 -5 10 4 13 1 9 -9 -7 -18 -5 -18 -34 12
-17 18 -19 23 -6 18 9 -3 17 -11 17 -16z m-113 -10 c-3 -8 -6 -5 -6 6 -1 11 2
17 5 13 3 -3 4 -12 1 -19z m382 5 c-4 -24 2 -56 9 -47 4 6 25 13 47 16 36 4
43 1 73 -33 l34 -38 -73 -103 c-87 -123 -219 -297 -230 -304 -17 -10 -8 -60
31 -174 22 -63 41 -119 43 -124 1 -5 -41 -26 -93 -48 -52 -21 -100 -41 -105
-44 -7 -3 -11 46 -13 142 -1 117 -6 167 -27 251 -14 57 -25 124 -25 149 0 38
3 44 25 50 14 3 44 27 67 53 22 25 36 36 29 24 -20 -38 -14 -45 32 -39 23 3
43 5 45 5 1 1 2 9 2 20 0 22 -25 45 -40 36 -5 -3 -10 -3 -11 2 0 4 -2 16 -4
25 -2 10 2 15 10 12 7 -3 31 19 55 48 23 29 46 53 51 53 4 0 15 9 23 20 9 11
16 15 16 8 0 -6 -4 -14 -9 -17 -5 -3 -11 -16 -14 -28 -6 -22 -6 -22 13 2 11
14 18 32 16 41 -2 9 1 24 6 33 9 17 19 22 17 9z m-492 -23 c-3 -11 -1 -23 4
-26 5 -3 7 -9 4 -14 -3 -5 0 -12 6 -15 5 -4 8 -14 4 -22 -4 -13 -3 -14 10 -3
8 7 15 21 15 31 0 10 4 20 9 23 5 4 7 -3 4 -14 -3 -11 2 -31 11 -44 10 -16 12
-27 6 -31 -6 -4 -8 -11 -4 -16 4 -6 10 -6 19 1 9 8 11 5 8 -15 -4 -20 -2 -24
15 -20 16 3 19 0 15 -12 -4 -10 -2 -14 4 -10 6 4 13 1 16 -7 10 -25 -7 -27
-26 -4 -13 16 -20 19 -24 11 -2 -7 -9 -13 -14 -13 -6 0 -7 6 -3 13 4 7 3 9 -2
4 -5 -5 -9 -14 -9 -20 0 -7 -8 -12 -17 -12 -9 0 -20 -4 -25 -9 -4 -5 -3 -6 5
-2 6 4 12 5 12 2 0 -6 -56 -37 -65 -36 -15 0 -46 -44 -40 -58 5 -13 2 -13 -15
3 -23 21 -30 75 -6 56 10 -8 16 -9 21 -1 8 13 -20 24 -42 16 -10 -4 -1 7 20
24 30 26 37 38 35 64 -2 30 -3 31 -40 28 -34 -4 -38 -2 -38 19 0 18 3 20 9 10
7 -11 10 -9 15 7 8 23 51 62 69 62 6 0 2 -7 -9 -15 -18 -13 -18 -14 5 -8 14 4
26 1 32 -8 6 -9 9 -10 9 -2 0 6 -4 14 -9 17 -5 4 -8 14 -6 24 2 9 4 23 4 30 1
6 4 12 7 12 4 0 4 -9 1 -20z m-102 -15 c-1 -14 2 -25 8 -25 5 0 4 -7 -3 -15
-7 -8 -16 -12 -21 -9 -12 7 -11 44 1 44 6 0 9 3 9 8 -2 11 1 22 5 22 2 0 3
-11 1 -25z m425 -1 c0 -8 -4 -14 -10 -14 -5 0 -10 9 -10 21 0 11 5 17 10 14 6
-3 10 -13 10 -21z m-170 -24 c6 -11 8 -20 6 -20 -3 0 -10 9 -16 20 -6 11 -8
20 -6 20 3 0 10 -9 16 -20z m120 -20 c0 -5 -4 -10 -10 -10 -5 0 -10 5 -10 10
0 6 5 10 10 10 6 0 10 -4 10 -10z m-45 -40 c-19 -21 -35 -26 -35 -12 0 5 10
14 23 20 31 15 32 14 12 -8z m-381 -16 c5 -14 4 -15 -9 -4 -17 14 -19 20 -6
20 5 0 12 -7 15 -16z m293 -6 c-3 -8 -6 -5 -6 6 -1 11 2 17 5 13 3 -3 4 -12 1
-19z m-400 -11 c14 0 24 -45 12 -53 -5 -3 -10 0 -10 5 -3 26 -4 30 -11 36 -4
4 -11 4 -17 0 -7 -4 -5 -14 5 -31 9 -13 12 -24 7 -24 -16 0 -34 48 -22 56 8 4
7 10 -2 16 -10 7 -8 8 6 3 11 -4 25 -8 32 -8z m84 -11 c-17 -20 -48 -26 -48
-9 0 8 6 12 13 9 8 -3 16 -1 19 4 4 6 11 10 17 10 7 0 7 -5 -1 -14z m-351 -31
l0 -34 -87 -27 c-80 -24 -264 -66 -269 -61 -1 1 -4 15 -6 31 -3 28 -3 29 87
47 50 10 126 32 170 48 103 38 105 38 105 -4z m163 10 c-3 -9 -8 -14 -10 -11
-3 3 -2 9 2 15 9 16 15 13 8 -4z m221 -31 c4 -19 10 -43 13 -52 4 -10 -2 -6
-14 8 -19 22 -23 23 -48 12 l-28 -13 22 -22 c16 -18 18 -26 9 -35 -10 -10 -19
-6 -41 20 -18 22 -25 26 -21 13 4 -11 15 -29 24 -40 32 -37 42 -63 30 -84 -5
-11 -7 -27 -3 -37 4 -12 3 -15 -6 -10 -7 5 -10 18 -7 31 3 13 2 26 -3 29 -5 3
-11 15 -14 26 -3 13 -1 18 5 13 7 -3 8 -1 4 5 -4 7 -17 12 -30 12 -16 0 -25 9
-35 35 -14 39 -7 59 16 51 11 -4 13 -2 9 9 -6 17 22 35 44 27 8 -2 11 -1 7 4
-8 8 28 33 49 34 7 0 15 -16 18 -36z m-241 4 c9 -31 2 -33 -11 -3 -6 14 -8 25
-3 25 5 0 11 -10 14 -22z m37 -33 c0 -5 -5 -3 -10 5 -5 8 -10 20 -10 25 0 6 5
3 10 -5 5 -8 10 -19 10 -25z m-102 -36 l-3 -44 -5 52 c-3 29 -1 48 3 44 5 -5
7 -28 5 -52z m782 48 c0 -8 -7 -14 -15 -14 -25 0 -17 17 13 26 1 1 2 -5 2 -12z
m-811 -18 c3 -11 1 -12 -11 -2 -8 7 -19 9 -23 5 -5 -4 -5 -1 -1 6 9 16 28 11
35 -9z m-69 -9 c0 -5 -10 -10 -22 -9 -22 0 -22 1 -3 9 11 5 21 9 23 9 1 1 2
-3 2 -9z m-358 -29 c4 -26 1 -30 -25 -35 -16 -3 -46 -6 -66 -6 -32 0 -36 3
-36 25 0 27 8 31 75 38 19 2 38 5 41 5 4 1 9 -11 11 -27z m385 7 c-3 -8 -6 -5
-6 6 -1 11 2 17 5 13 3 -3 4 -12 1 -19z m203 0 c0 -13 -23 -5 -28 10 -2 7 2
10 12 6 9 -3 16 -11 16 -16z m-35 -7 c3 -5 2 -12 -3 -15 -5 -3 -9 1 -9 9 0 17
3 19 12 6z m-1525 -5 c0 -2 -7 -6 -15 -10 -8 -3 -15 -1 -15 4 0 6 7 10 15 10
8 0 15 -2 15 -4z m1770 -16 c0 -11 -2 -20 -4 -20 -2 0 -6 9 -9 20 -3 11 -1 20
4 20 5 0 9 -9 9 -20z m-633 -6 c-3 -3 -12 -4 -19 -1 -8 3 -5 6 6 6 11 1 17 -2
13 -5z m438 -31 c9 -51 24 -76 40 -69 9 3 12 0 9 -9 -3 -8 9 -32 27 -54 27
-34 30 -43 19 -56 -14 -17 0 -21 17 -4 6 6 23 9 36 5 22 -5 25 -11 26 -58 0
-29 3 -63 5 -75 3 -13 -1 -24 -10 -27 -11 -4 -14 -30 -14 -121 0 -103 -2 -115
-17 -116 -14 0 -15 -2 -3 -6 24 -9 30 -25 30 -79 l0 -50 -87 1 c-49 1 -114 -1
-145 -5 -44 -5 -58 -3 -58 7 0 10 25 13 98 15 l97 2 -100 6 c-70 4 -83 7 -45
8 58 3 201 20 206 25 2 2 1 12 -2 24 -4 14 -30 34 -77 57 l-72 36 85 -4 c47
-3 72 -2 55 1 -30 6 -30 6 -5 13 25 6 25 6 23 123 -1 105 6 141 20 105 3 -7 6
-1 6 13 1 31 -18 89 -29 89 -4 0 -41 -15 -83 -34 -41 -19 -98 -42 -126 -50
l-51 -15 0 81 c0 44 -7 107 -16 140 -8 34 -12 64 -7 68 10 9 114 49 129 49 7
1 15 -16 19 -36z m165 27 c0 -5 -5 -10 -11 -10 -5 0 -2 -14 8 -30 16 -27 16
-32 3 -40 -10 -7 -11 -10 -2 -10 6 0 12 -4 12 -10 0 -5 -5 -9 -11 -7 -6 1 -14
-4 -16 -10 -3 -7 2 -13 11 -13 9 0 16 -5 16 -11 0 -6 -6 -9 -14 -6 -8 3 -17 1
-19 -6 -2 -7 -6 5 -8 25 -3 20 -1 34 3 32 12 -7 10 -2 -12 41 -15 29 -17 42
-9 52 13 15 49 18 49 3z m-653 -6 c-3 -3 -12 -4 -19 -1 -8 3 -5 6 6 6 11 1 17
-2 13 -5z m320 -16 c-3 -8 -6 -5 -6 6 -1 11 2 17 5 13 3 -3 4 -12 1 -19z
m-379 5 c-15 -2 -29 -12 -31 -21 -3 -12 -5 -10 -6 6 -1 19 4 22 32 21 29 -2
29 -2 5 -6z m419 1 c-3 -3 -12 -4 -19 -1 -8 3 -5 6 6 6 11 1 17 -2 13 -5z
m-477 -38 c0 -19 3 -41 6 -50 5 -12 0 -16 -20 -16 -23 0 -26 -4 -26 -36 0 -31
3 -35 23 -32 16 2 21 9 19 26 -2 12 2 22 7 22 6 0 11 -11 11 -24 0 -13 6 -27
13 -29 7 -4 6 -6 -5 -6 -12 -1 -17 -13 -20 -53 l-3 -53 150 -1 c85 0 161 -5
176 -12 l27 -11 -11 35 c-6 19 -14 34 -19 34 -5 0 -7 4 -3 9 8 14 -24 29 -49
24 -20 -3 -20 -3 -1 5 11 5 27 7 35 5 10 -3 11 -2 4 4 -6 4 -14 15 -17 23 -4
12 -6 11 -6 -2 -1 -13 -9 -18 -31 -18 -16 0 -30 -3 -30 -7 -1 -12 -61 -76 -66
-70 -2 2 11 21 30 42 33 35 34 39 18 51 -16 13 -16 13 1 14 12 0 16 4 11 13
-5 8 -2 8 9 -2 14 -11 17 -11 18 0 1 8 1 18 0 22 -1 5 3 6 9 2 6 -3 8 -11 5
-16 -3 -5 1 -6 9 -3 11 4 14 16 11 39 -4 33 -3 34 48 49 113 32 104 34 117
-26 17 -76 24 -161 16 -200 -5 -29 -12 -37 -45 -48 -21 -7 -44 -10 -49 -6 -6
4 -12 -5 -14 -21 -2 -16 -8 -27 -15 -26 -7 2 -1 -14 13 -34 13 -20 23 -41 21
-47 -2 -6 -19 -19 -38 -29 -31 -17 -23 -18 31 -1 12 4 20 2 20 -5 0 -6 -12
-12 -27 -13 -16 -1 -39 -3 -53 -3 -14 -1 -41 -9 -60 -18 -19 -8 -44 -18 -54
-22 -16 -5 -11 -11 28 -35 54 -34 62 -36 70 -14 3 8 11 12 17 8 9 -5 7 -11 -5
-19 -15 -12 -15 -13 4 -18 26 -7 25 -21 -2 -34 l-23 -11 25 -11 c23 -10 23
-10 -12 -9 -43 2 -45 17 -3 37 18 8 25 15 17 18 -7 3 -19 -1 -27 -7 -11 -9
-15 -9 -15 -1 0 6 5 11 11 11 6 0 -15 14 -47 30 -33 17 -64 38 -71 46 -8 11
-42 18 -125 24 -62 4 -121 11 -130 15 -9 4 -21 20 -27 35 -7 20 -19 31 -38 36
-55 12 -56 10 10 33 27 10 27 12 27 96 0 47 4 85 9 85 15 0 23 -18 11 -25 -5
-3 -9 -21 -9 -38 1 -18 3 -24 6 -14 3 11 15 17 36 18 l32 2 -35 7 c-25 5 -28
8 -11 9 16 1 21 5 17 16 -3 9 0 15 9 15 8 0 15 -6 15 -14 0 -8 3 -17 8 -19 4
-3 7 8 7 24 0 27 -3 29 -47 35 -42 6 -48 10 -48 30 0 13 9 29 20 36 11 7 20
17 20 22 0 17 33 46 52 46 14 0 18 8 18 38 l0 37 -62 -1 -63 -2 60 7 c33 4 63
8 68 9 4 1 7 -13 7 -32z m1049 -83 c17 -50 22 -97 26 -230 3 -92 8 -169 10
-172 3 -2 5 -20 5 -38 0 -27 -4 -34 -17 -31 -12 2 -42 52 -85 140 l-67 137
-48 -14 c-74 -23 -73 -23 -73 54 0 61 3 72 22 85 21 15 23 14 35 -7 7 -12 12
-17 13 -11 0 5 -7 19 -15 30 -19 25 -19 54 0 54 8 0 15 7 15 16 0 14 2 14 16
-1 11 -11 19 -13 23 -6 4 6 29 26 56 46 56 39 53 41 84 -52z m-1022 25 c-3 -8
-6 -5 -6 6 -1 11 2 17 5 13 3 -3 4 -12 1 -19z m163 -3 c7 -9 10 -25 6 -40 -6
-22 -11 -26 -39 -23 -24 2 -32 8 -33 23 -1 16 0 17 3 2 7 -27 57 -19 61 10 3
23 -28 40 -49 27 -8 -4 -9 -3 -5 4 10 17 41 15 56 -3z m-134 -40 c-3 -20 -16
-31 -16 -13 0 13 8 28 16 28 1 0 1 -7 0 -15z m771 -7 c-3 -8 -6 -5 -6 6 -1 11
2 17 5 13 3 -3 4 -12 1 -19z m-1737 3 c0 -5 -6 -14 -14 -20 -10 -9 -15 -8 -19
3 -3 8 -1 17 6 20 19 7 27 7 27 -3z m1690 -21 c0 -5 -4 -10 -10 -10 -5 0 -10
5 -10 10 0 6 5 10 10 10 6 0 10 -4 10 -10z m-600 -55 c-13 -14 -26 -22 -29
-19 -3 3 5 14 18 25 33 27 39 24 11 -6z m-1146 -11 c4 -10 1 -14 -6 -11 -7 2
-19 -3 -26 -12 -10 -13 -10 -11 -1 12 14 31 24 34 33 11z m1081 -24 c3 -6 -4
-10 -17 -10 -18 0 -20 2 -8 10 19 12 18 12 25 0z m524 -52 c-1 -31 -1 -32 -9
-8 -6 19 -9 20 -11 8 -5 -38 -4 -43 11 -43 8 0 16 -8 18 -18 3 -15 0 -16 -23
-7 -14 5 -41 20 -61 34 l-35 23 48 21 c62 28 63 28 62 -10z m-1909 -74 c0 -2
-9 0 -19 6 -13 7 -22 7 -26 0 -3 -5 -12 -10 -18 -10 -7 0 -4 7 7 15 13 10 24
11 37 4 11 -5 19 -12 19 -15z m1777 -10 c-3 -3 -12 -4 -19 -1 -8 3 -5 6 6 6
11 1 17 -2 13 -5z m40 -10 c-3 -3 -12 -4 -19 -1 -8 3 -5 6 6 6 11 1 17 -2 13
-5z m-60 -56 c-3 -8 -6 -5 -6 6 -1 11 2 17 5 13 3 -3 4 -12 1 -19z m43 13 c0
-6 -4 -13 -10 -16 -5 -3 -10 1 -10 9 0 9 5 16 10 16 6 0 10 -4 10 -9z m-19
-64 l-23 -22 17 28 c10 15 20 25 23 22 3 -3 -5 -16 -17 -28z m-61 15 c0 -4
-11 -9 -26 -10 -14 -1 -23 2 -19 8 7 12 45 14 45 2z m-693 -24 c-3 -8 -6 -5
-6 6 -1 11 2 17 5 13 3 -3 4 -12 1 -19z m1222 -40 c-1 -20 -2 -20 -6 -4 -4 14
-7 15 -13 6 -5 -9 -13 -9 -27 -2 -15 9 -20 8 -20 -3 0 -8 5 -11 10 -8 6 3 7 1
3 -6 -4 -6 -11 -9 -16 -6 -5 3 -11 1 -15 -5 -10 -17 -32 -11 -38 10 -4 17 -29
26 -59 21 -5 0 -8 4 -8 9 0 6 38 10 95 10 92 0 95 -1 94 -22z m-619 8 c0 -2
-11 -6 -25 -8 -13 -3 -22 -1 -19 3 5 9 44 13 44 5z m-73 -12 c-3 -3 -12 -4
-19 -1 -8 3 -5 6 6 6 11 1 17 -2 13 -5z m563 -26 c0 -10 -5 -18 -11 -18 -5 0
-7 5 -4 10 3 6 -3 10 -14 10 -12 0 -21 3 -21 8 0 4 11 7 25 7 17 0 25 -5 25
-17z m124 -32 c-6 -38 -5 -37 -53 -41 -23 -1 -48 -8 -56 -15 -10 -8 -19 -9
-32 -1 -10 6 -12 11 -5 11 6 0 12 5 12 11 0 6 -9 8 -20 4 -17 -6 -20 -2 -19
27 l1 33 8 -30 c4 -16 8 -22 9 -12 1 11 9 17 23 17 16 0 19 -3 11 -11 -6 -6
-8 -20 -5 -32 5 -19 7 -17 17 13 10 28 17 35 38 35 14 -1 24 2 21 6 -5 9 15
17 38 16 14 -1 16 -8 12 -31z m65 23 c41 -14 40 -31 -1 -27 -22 2 -34 9 -36
21 -4 20 -4 20 37 6z m-1016 -6 c-45 -2 -122 -2 -170 0 -48 1 -11 3 82 3 94 0
133 -2 88 -3z m-283 -33 c-22 -14 59 -19 262 -15 132 2 177 0 128 -5 l-75 -7
102 1 c72 1 99 -2 92 -10 -11 -14 -327 -26 -366 -14 -15 4 -68 16 -117 25 -49
9 -103 22 -120 30 -25 12 -26 13 -6 9 14 -3 43 -1 65 4 39 8 60 -2 35 -18z
m1340 -11 c0 -5 -20 -9 -45 -9 -25 0 -45 4 -45 10 0 5 20 9 45 8 25 0 45 -4
45 -9z m107 -15 c12 -8 35 -14 51 -14 16 0 51 -8 78 -17 l49 -17 -40 -12 c-48
-15 -95 -17 -95 -5 0 5 10 12 23 15 21 7 21 7 2 16 -11 5 -46 9 -77 9 -55 1
-58 2 -58 27 0 22 3 24 23 19 12 -4 32 -13 44 -21z m-110 -18 c4 -3 -5 -6 -20
-6 -14 0 -28 -4 -31 -8 -3 -5 9 -7 27 -6 18 2 11 -2 -17 -8 -37 -8 -50 -8 -56
2 -4 7 -13 9 -20 5 -9 -5 -11 -4 -6 3 5 8 -1 12 -16 13 -18 1 -19 2 -5 6 10 3
29 -2 42 -11 23 -15 24 -15 20 5 -4 19 0 20 36 16 22 -2 43 -7 46 -11z m-570
-2 c-3 -3 -12 -4 -19 -1 -8 3 -5 6 6 6 11 1 17 -2 13 -5z m-57 -19 c0 -11 -12
-15 -50 -15 -78 0 -62 26 18 29 22 1 32 -4 32 -14z m380 11 c0 -2 -7 -6 -15
-10 -8 -3 -15 -1 -15 4 0 6 7 10 15 10 8 0 15 -2 15 -4z m73 -3 c-7 -2 -19 -2
-25 0 -7 3 -2 5 12 5 14 0 19 -2 13 -5z m21 -22 c-5 -5 -27 -11 -49 -14 -27
-5 -35 -3 -25 3 8 5 27 10 43 10 15 0 27 5 27 12 0 6 3 8 7 5 4 -4 2 -11 -3
-16z m-1054 -22 c0 -25 -2 -28 -13 -17 -24 24 -26 44 -6 45 15 1 19 -5 19 -28z
m944 6 c-4 -8 -8 -15 -10 -15 -2 0 -4 7 -4 15 0 8 4 15 10 15 5 0 7 -7 4 -15z
m-364 -3 c0 -4 -19 -8 -43 -10 -23 -1 -37 1 -30 5 15 10 73 14 73 5z m-220
-12 c0 -5 -9 -10 -19 -10 -31 0 -145 -31 -152 -42 -4 -6 -19 -6 -40 0 -29 9
-31 10 -9 11 14 1 66 12 115 25 108 29 105 29 105 16z m1160 -5 c9 -11 10 -41
5 -115 -7 -92 -6 -102 11 -115 11 -8 15 -15 9 -15 -11 0 -13 -13 -23 -242 l-7
-167 -30 -31 c-16 -17 -35 -28 -43 -25 -7 2 -10 0 -7 -5 8 -12 -52 -38 -142
-60 l-73 -17 1 86 c1 87 15 280 17 249 1 -10 9 -15 20 -13 73 15 82 14 82 -3
1 -10 6 -5 15 13 9 20 14 24 14 13 1 -21 10 -22 61 -7 32 10 39 17 45 46 3 19
4 38 1 41 -3 3 -34 -2 -68 -11 -35 -9 -81 -19 -103 -23 -22 -3 -48 -8 -57 -11
-10 -2 -18 0 -18 5 0 6 19 13 43 17 73 10 217 47 217 55 0 8 -102 -10 -110
-19 -3 -3 -16 -6 -30 -7 -14 0 -46 -4 -72 -8 -39 -6 -48 -4 -48 7 0 8 6 15 13
14 43 -1 67 4 61 14 -4 8 3 9 23 5 23 -5 32 -3 36 8 7 19 9 19 -70 2 l-63 -13
6 136 c3 75 7 142 9 149 3 6 15 12 27 13 13 0 68 11 123 24 122 29 110 28 125
10z m-620 -9 c0 -7 -12 -18 -27 -24 -28 -11 -214 -34 -220 -28 -4 4 80 26 122
32 23 3 96 23 123 33 1 1 2 -5 2 -13z m148 7 c-10 -2 -26 -2 -35 0 -10 3 -2 5
17 5 19 0 27 -2 18 -5z m115 0 c-7 -2 -19 -2 -25 0 -7 3 -2 5 12 5 14 0 19 -2
13 -5z m122 -8 c-42 -13 -51 -12 -41 3 3 5 22 9 43 9 l38 1 -40 -13z m-761
-50 c35 -3 46 0 46 11 0 9 -12 14 -37 15 -34 1 -35 2 -13 9 54 17 60 14 60
-38 0 -43 -2 -48 -22 -46 -13 1 -30 4 -38 7 -8 3 -31 10 -51 17 -33 10 -65 36
-83 67 -4 7 16 1 43 -13 27 -15 70 -28 95 -29z m433 49 c-3 -3 -12 -4 -19 -1
-8 3 -5 6 6 6 11 1 17 -2 13 -5z m153 -4 c6 -2 -103 -29 -147 -37 -27 -4 -33
-2 -33 13 0 16 2 17 10 4 5 -8 10 -10 10 -4 0 5 18 11 40 12 22 2 51 7 63 11
19 7 38 7 57 1z m75 -15 c-16 -8 -37 -14 -45 -14 -8 0 -1 7 15 14 17 8 37 14
45 14 8 0 2 -7 -15 -14z m-82 -22 c-7 -2 -19 -2 -25 0 -7 3 -2 5 12 5 14 0 19
-2 13 -5z m107 -35 c-1 -42 -1 -43 -15 -18 -8 14 -14 21 -15 17 0 -4 -9 -3
-20 3 -14 8 -20 8 -20 0 0 -14 -33 -9 -34 5 -1 5 22 15 49 21 28 7 51 13 53
13 1 1 2 -18 2 -41z m-593 -5 c-3 -10 -5 -4 -5 12 0 17 2 24 5 18 2 -7 2 -21
0 -30z m276 18 c5 -20 11 -17 -202 -66 -35 -7 -67 -19 -71 -26 -4 -6 -10 -7
-13 -2 -8 12 4 28 28 37 36 15 139 35 149 29 5 -3 6 -1 2 5 -4 7 -2 12 3 12
18 0 20 0 48 15 37 20 50 19 56 -4z m142 10 c-11 -5 -40 -11 -65 -14 l-45 -6
45 13 c25 8 54 14 65 14 l20 1 -20 -8z m-17 -33 c-69 -18 -77 -23 -81 -46 -4
-24 -4 -23 -6 5 -1 26 3 34 22 38 129 30 177 32 65 3z m95 -13 c7 3 19 0 27
-5 13 -9 13 -11 0 -20 -12 -8 -9 -10 13 -10 26 0 27 1 13 16 -17 17 -21 34 -8
34 5 0 19 -12 31 -26 22 -26 23 -31 18 -163 -3 -75 -6 -136 -6 -137 -1 -1
-119 -15 -139 -17 -7 0 -11 -7 -10 -16 4 -17 29 -19 91 -7 27 5 37 3 38 -6 1
-7 5 -2 9 12 5 15 8 -53 9 -163 1 -147 -2 -188 -11 -185 -9 3 -14 33 -16 91
-2 55 -7 87 -14 87 -8 0 -9 -27 -5 -89 l6 -90 -48 -10 c-26 -6 -79 -15 -116
-21 -38 -6 -72 -13 -77 -16 -4 -3 -8 69 -8 160 0 141 2 166 15 166 8 0 15 5
15 10 0 6 -7 10 -15 10 -30 0 -14 18 23 24 20 4 45 9 55 12 9 3 17 1 17 -5 0
-6 -11 -11 -24 -11 -13 0 -30 -7 -37 -17 -13 -15 -12 -15 10 -4 12 7 32 11 42
8 15 -4 19 0 19 23 l0 28 -52 -14 c-66 -17 -68 -17 -68 1 0 9 14 16 38 20 20
4 48 11 62 16 20 7 16 8 -15 3 -22 -3 -50 -8 -62 -11 -16 -4 -23 -1 -23 10 0
8 6 18 13 20 9 4 9 8 -1 15 -11 7 -9 10 7 15 12 3 21 11 21 17 0 10 -3 10 -14
1 -23 -19 -28 5 -8 38 l18 29 13 -28 c10 -24 16 -28 34 -21 19 7 22 17 24 67
1 32 0 53 -3 46 -5 -10 -9 -10 -22 0 -13 11 -15 10 -10 -14 3 -19 2 -25 -6
-20 -6 3 -19 5 -28 4 -20 -4 -24 14 -5 21 7 3 4 6 -6 6 -26 1 -19 45 8 49 48
7 65 13 65 23 0 6 -4 8 -8 5 -4 -2 -14 -1 -22 5 -10 6 4 9 43 9 52 0 60 2 65
22 3 12 7 17 9 11 3 -7 10 -10 16 -8z m-276 -21 c-3 -3 -12 -4 -19 -1 -8 3 -5
6 6 6 11 1 17 -2 13 -5z m-57 -14 c-14 -4 -34 -8 -45 -8 -16 0 -15 2 5 8 14 4
34 8 45 8 16 0 15 -2 -5 -8z m-77 -17 c-7 -2 -19 -2 -25 0 -7 3 -2 5 12 5 14
0 19 -2 13 -5z m189 -513 c-3 -161 -5 -180 -20 -181 -9 0 -43 -4 -76 -8 l-59
-7 6 83 c5 81 -3 110 -21 78 -13 -24 -125 -17 -130 8 -2 10 3 17 12 17 19 0
28 14 20 34 -4 10 -18 16 -40 16 -29 0 -34 -3 -34 -25 0 -13 7 -28 16 -33 20
-11 9 -36 -12 -28 -8 3 -22 2 -31 -2 -14 -5 -9 -8 17 -12 l35 -5 3 -72 c3 -70
2 -73 -20 -74 -13 -1 -87 -4 -166 -8 l-142 -6 0 103 0 102 38 0 37 0 0 -65 c0
-36 4 -64 9 -63 5 2 8 31 7 66 l-2 62 35 0 c37 0 44 -8 25 -27 -15 -15 -3 -33
22 -33 21 0 27 36 7 42 -6 2 -8 10 -4 17 5 8 26 11 59 10 33 -2 52 1 55 9 2 8
-8 12 -27 12 -29 0 -31 2 -31 40 l0 40 50 0 c41 0 50 -3 51 -17 1 -16 2 -16 6
-2 5 20 33 29 94 29 43 0 46 -1 42 -24 -6 -29 4 -36 40 -29 33 6 37 34 5 30
-15 -1 -23 3 -23 13 0 8 8 14 18 14 9 -1 17 2 17 6 0 8 64 25 88 23 6 0 12 4
12 9 0 6 -10 8 -22 5 -13 -3 -45 -9 -72 -13 -39 -5 -48 -4 -44 7 4 11 82 33
138 38 13 1 15 -24 12 -179z m-316 121 c-7 -11 -76 -22 -89 -14 -6 4 -2 10 9
14 27 11 86 11 80 0z m144 -253 c0 -60 -2 -68 -19 -68 -10 0 -39 -3 -65 -6
l-46 -7 0 77 0 76 65 -2 65 -2 0 -68z m-547 -230 c7 -27 -1 -38 -13 -18 -7 11
-9 10 -8 -7 1 -11 7 -19 13 -16 7 2 12 -3 12 -12 0 -18 -16 -19 -40 -1 -22 17
-19 37 8 54 19 12 19 13 -4 6 -16 -4 -21 -3 -17 5 12 19 43 12 49 -11z m2887
-23 c0 -5 -5 -3 -10 5 -5 8 -10 20 -10 25 0 6 5 3 10 -5 5 -8 10 -19 10 -25z
m78 -175 c73 -161 161 -349 169 -362 2 -5 2 -8 -1 -8 -13 0 -246 501 -246 528
0 12 11 -10 78 -158z m-2985 126 c17 -13 16 -14 -7 -12 -15 0 -26 7 -26 14 0
15 10 15 33 -2z m265 -33 c-16 -2 -40 -2 -55 0 -16 2 -3 4 27 4 30 0 43 -2 28
-4z m-247 -172 c13 -2 4 -31 -10 -32 -12 0 -11 -3 4 -9 11 -5 14 -9 6 -9 -9
-1 -10 -5 -5 -13 14 -20 10 -53 -6 -50 -13 2 -13 0 0 -10 9 -8 15 -31 16 -55
1 -39 -1 -41 -31 -45 -30 -3 -32 -2 -31 27 1 16 8 36 16 43 13 11 13 11 0 7
-12 -4 -15 1 -15 21 1 18 8 28 19 30 29 4 31 14 3 14 -29 0 -38 19 -9 21 14 1
14 2 1 6 -11 2 -14 12 -11 32 4 27 7 28 53 22z m3174 -207 c20 -54 34 -102 32
-107 -2 -6 -18 34 -36 89 -19 54 -40 111 -47 126 -8 15 -14 31 -14 35 1 17 31
-49 65 -143z m-85 -72 c0 -19 -23 24 -54 102 -51 127 -44 131 9 7 25 -57 45
-106 45 -109z m-1483 102 c-3 -3 -12 -4 -19 -1 -8 3 -5 6 6 6 11 1 17 -2 13
-5z m-1604 -61 c-7 -2 -19 -2 -25 0 -7 3 -2 5 12 5 14 0 19 -2 13 -5z m-20
-23 c11 0 18 -3 14 -6 -11 -11 -58 6 -51 18 6 9 9 9 12 0 2 -7 13 -12 25 -12z
m1 -20 c7 0 13 -7 13 -15 0 -8 -4 -12 -9 -9 -4 3 -8 1 -8 -5 0 -5 6 -12 13
-14 6 -3 3 -6 -8 -6 -28 -1 -41 11 -41 37 0 15 5 21 14 17 7 -3 19 -5 26 -5z
m19 -86 c-3 -8 -10 -14 -17 -13 -24 3 -36 -1 -36 -13 0 -9 3 -9 11 -1 6 6 18
9 25 6 17 -6 18 -33 2 -33 -10 0 -10 -2 -1 -8 19 -12 14 -152 -6 -177 -15 -18
-15 -19 2 -6 10 8 17 9 17 3 0 -6 -8 -16 -17 -22 -16 -10 -16 -10 3 -5 14 4
21 1 21 -10 0 -10 -6 -13 -17 -10 -11 3 -20 -1 -24 -10 -15 -39 -24 -7 -25 84
-1 85 2 100 17 107 9 4 21 6 25 5 5 -1 5 4 2 10 -5 8 -10 8 -18 0 -17 -17 -27
-13 -27 9 0 10 8 24 18 30 16 11 16 11 0 6 -15 -4 -18 1 -18 33 0 47 5 52 40
39 19 -6 27 -14 23 -24z m3178 -11 c13 -16 12 -17 -3 -4 -17 13 -22 21 -14 21
2 0 10 -8 17 -17z m639 -407 c0 -5 -1 -7 -3 -5 -1 2 -20 27 -41 54 l-38 50 41
-45 c23 -25 41 -49 41 -54z m-3844 14 c24 0 24 0 23 -110 l-1 -110 -32 0 -31
0 0 62 c0 35 5 66 10 70 7 5 6 8 0 8 -6 0 -10 17 -9 38 3 57 5 69 11 55 2 -7
15 -13 29 -13z m24 -240 c0 -10 -59 -10 -65 0 -2 4 11 7 30 8 19 1 35 -3 35
-8z m0 -45 c0 -20 -5 -25 -25 -25 -14 0 -25 -4 -25 -10 0 -5 3 -9 8 -9 21 4
43 -2 38 -10 -3 -4 -18 -7 -33 -5 -25 3 -24 3 5 -6 17 -6 32 -15 32 -21 0 -6
-6 -7 -12 -3 -10 6 -10 4 0 -8 9 -12 12 -64 10 -209 l-3 -193 -33 -7 c-23 -5
-32 -3 -29 5 2 6 16 12 30 14 15 2 27 7 27 11 0 4 -13 6 -28 3 -26 -3 -28 -1
-28 30 1 18 8 39 16 46 13 11 13 11 -1 6 -12 -4 -16 1 -16 20 0 17 5 26 16 27
13 1 13 2 -1 6 -30 7 -20 23 15 25 l32 1 -32 4 c-31 4 -48 23 -20 23 8 0 8 3
-2 9 -12 8 -12 12 -2 25 9 11 10 16 2 16 -18 0 -12 20 7 21 16 1 16 2 0 6 -10
2 -18 9 -18 14 0 5 8 10 18 10 15 1 15 2 0 6 -15 4 -16 17 -13 101 2 53 4 97
5 97 0 1 14 2 30 3 26 2 30 -1 30 -23z"/>
<path d="M7486 5411 c-9 -14 5 -42 18 -38 15 5 14 39 -1 44 -6 2 -14 0 -17 -6z"/>
<path d="M7497 5333 c-2 -4 -1 -17 3 -28 7 -19 8 -19 15 -2 8 18 -9 46 -18 30z"/>
<path d="M8104 3479 c-3 -6 -2 -15 3 -20 5 -5 9 -1 9 11 0 23 -2 24 -12 9z"/>
<path d="M6847 4064 c-22 -31 -33 -55 -27 -59 6 -4 9 -1 8 7 -2 8 4 12 15 10
12 -2 17 4 17 19 0 12 7 30 16 40 9 10 14 22 13 27 -2 5 -21 -14 -42 -44z"/>
<path d="M7001 4111 c-12 -8 -13 -14 -3 -36 6 -14 19 -28 27 -32 18 -6 44 22
45 48 0 26 -41 37 -69 20z"/>
<path d="M6967 3993 c-12 -12 -7 -31 10 -37 19 -8 48 17 39 33 -8 12 -39 15
-49 4z"/>
<path d="M6766 3875 c-14 -15 -14 -19 -1 -46 21 -39 55 -40 55 -1 0 16 -8 37
-19 46 -17 16 -20 16 -35 1z m23 -26 c-11 -7 -10 -9 4 -9 18 0 23 -15 8 -24
-13 -9 -34 22 -27 40 3 8 11 12 17 8 8 -4 7 -9 -2 -15z"/>
<path d="M6671 3864 c0 -11 3 -14 6 -6 3 7 2 16 -1 19 -3 4 -6 -2 -5 -13z"/>
<path d="M6706 3755 c23 -68 33 -88 33 -70 0 11 -9 36 -20 55 -11 19 -17 26
-13 15z"/>
<path d="M6752 3555 c0 -16 4 -41 8 -55 l8 -25 0 25 c0 14 -4 39 -8 55 l-8 30
0 -30z"/>
<path d="M6810 3446 c0 -12 -5 -16 -15 -12 -8 3 -15 0 -15 -5 0 -6 9 -9 20 -6
10 3 21 0 24 -7 2 -6 5 -5 5 4 0 8 -4 22 -9 30 -8 13 -10 12 -10 -4z"/>
<path d="M6510 4086 c0 -2 8 -10 18 -17 15 -13 16 -12 3 4 -13 16 -21 21 -21
13z"/>
<path d="M6385 4060 c-16 -7 -17 -9 -3 -9 9 -1 20 4 23 9 7 11 7 11 -20 0z"/>
<path d="M6433 4015 c4 -5 0 -20 -9 -34 -12 -17 -14 -26 -5 -29 6 -2 9 -7 6
-12 -3 -4 2 -13 9 -19 10 -9 16 -9 21 -1 4 6 3 10 -2 9 -20 -3 -25 2 -14 15 8
10 9 16 1 21 -7 4 -7 12 0 25 7 13 7 21 -2 26 -7 4 -10 3 -5 -1z"/>
<path d="M6263 3153 c9 -2 23 -2 30 0 6 3 -1 5 -18 5 -16 0 -22 -2 -12 -5z"/>
<path d="M6310 3810 c0 -5 5 -10 10 -10 6 0 10 5 10 10 0 6 -4 10 -10 10 -5 0
-10 -4 -10 -10z"/>
<path d="M5628 3533 c-34 -5 -37 -23 -5 -24 12 0 46 -3 76 -5 29 -3 61 -2 70
1 14 6 14 8 -3 21 -19 13 -76 16 -138 7z"/>
<path d="M5548 3523 c7 -3 16 -2 19 1 4 3 -2 6 -13 5 -11 0 -14 -3 -6 -6z"/>
<path d="M5800 3456 c0 -3 9 -10 20 -16 11 -6 20 -8 20 -6 0 3 -9 10 -20 16
-11 6 -20 8 -20 6z"/>
<path d="M5614 3429 c-3 -6 -1 -16 5 -22 8 -8 11 -5 11 11 0 24 -5 28 -16 11z"/>
<path d="M6420 3720 c-13 -8 -12 -10 3 -10 9 0 17 5 17 10 0 12 -1 12 -20 0z"/>
<path d="M6541 3519 c12 -23 15 -23 22 -5 3 8 -2 16 -14 19 -16 4 -17 2 -8
-14z"/>
<path d="M6136 3544 c-17 -12 -17 -14 -4 -14 9 0 20 5 23 11 11 17 2 18 -19 3z"/>
<path d="M6430 3284 c0 -8 6 -11 15 -8 8 4 15 9 15 13 0 4 -7 8 -15 8 -8 0
-15 -6 -15 -13z"/>
<path d="M6505 3230 c-3 -5 -1 -10 4 -10 6 0 11 5 11 10 0 6 -2 10 -4 10 -3 0
-8 -4 -11 -10z"/>
<path d="M5258 3223 c7 -3 16 -2 19 1 4 3 -2 6 -13 5 -11 0 -14 -3 -6 -6z"/>
<path d="M5488 3173 c7 -3 16 -2 19 1 4 3 -2 6 -13 5 -11 0 -14 -3 -6 -6z"/>
<path d="M6790 3078 c-47 -11 -91 -21 -97 -24 -7 -2 -13 -19 -13 -39 0 -42 12
-44 112 -16 83 22 114 42 120 75 6 32 -3 32 -122 4z m12 -60 c-4 -4 -22 -11
-40 -14 -27 -6 -31 -4 -26 10 4 12 16 16 40 14 19 -1 30 -6 26 -10z"/>
<path d="M6870 2980 c-8 -5 -10 -10 -5 -10 6 0 17 5 25 10 8 5 11 10 5 10 -5
0 -17 -5 -25 -10z"/>
<path d="M6880 2877 c0 -10 -10 -22 -22 -27 -19 -8 -16 -9 12 -4 45 8 47 11
27 31 -16 16 -17 16 -17 0z"/>
<path d="M6861 2816 c-25 -6 -47 -18 -49 -25 -4 -11 2 -12 23 -7 15 4 40 10
56 13 15 3 30 11 33 19 6 16 -3 16 -63 0z"/>
<path d="M6670 2810 c0 -5 5 -10 11 -10 5 0 7 5 4 10 -3 6 -8 10 -11 10 -2 0
-4 -4 -4 -10z"/>
<path d="M6891 2634 c0 -11 3 -14 6 -6 3 7 2 16 -1 19 -3 4 -6 -2 -5 -13z"/>
<path d="M6840 2631 c-8 -6 -18 -7 -22 -5 -4 3 -5 -2 -1 -11 3 -9 9 -13 12 -7
3 5 15 14 26 20 11 6 16 11 10 12 -5 0 -17 -4 -25 -9z"/>
<path d="M6588 3033 c7 -3 16 -2 19 1 4 3 -2 6 -13 5 -11 0 -14 -3 -6 -6z"/>
<path d="M6503 2953 c9 -2 23 -2 30 0 6 3 -1 5 -18 5 -16 0 -22 -2 -12 -5z"/>
<path d="M6458 2943 c7 -3 16 -2 19 1 4 3 -2 6 -13 5 -11 0 -14 -3 -6 -6z"/>
<path d="M6611 2763 c-1 -6 -20 -16 -43 -22 l-43 -11 45 6 c50 6 54 8 47 26
-4 9 -6 9 -6 1z"/>
<path d="M6480 2729 c0 -5 9 -9 20 -9 11 0 20 2 20 4 0 2 -9 6 -20 9 -11 3
-20 1 -20 -4z"/>
<path d="M6380 2715 c-6 -7 5 -9 31 -7 21 2 42 8 45 13 7 13 -66 6 -76 -6z"/>
<path d="M6588 2713 c-16 -2 -28 -8 -28 -12 0 -4 14 -6 30 -3 17 2 30 8 30 13
0 5 -1 8 -2 8 -2 -1 -15 -4 -30 -6z"/>
<path d="M6480 2690 c0 -6 7 -10 15 -10 8 0 15 2 15 4 0 2 -7 6 -15 10 -8 3
-15 1 -15 -4z"/>
<path d="M6528 2693 c7 -3 16 -2 19 1 4 3 -2 6 -13 5 -11 0 -14 -3 -6 -6z"/>
<path d="M6520 2466 c0 -2 9 -6 20 -9 11 -3 20 -1 20 4 0 5 -9 9 -20 9 -11 0
-20 -2 -20 -4z"/>
<path d="M5830 2290 c0 -13 7 -20 20 -20 13 0 20 7 20 20 0 13 -7 20 -20 20
-13 0 -20 -7 -20 -20z"/>
<path d="M5574 1628 c-5 -7 -9 -21 -9 -30 -2 -17 0 -17 16 -2 10 9 15 22 12
30 -6 17 -10 17 -19 2z"/>
<path d="M5558 883 c10 -4 10 -8 0 -21 -12 -14 -11 -14 9 -1 16 9 19 16 10 21
-7 4 -16 7 -22 7 -5 0 -4 -3 3 -6z"/>
<path d="M5560 820 c18 -12 30 -13 30 -2 0 4 -10 9 -22 9 -18 2 -20 0 -8 -7z"/>
<path d="M5570 459 c0 -5 5 -7 10 -4 6 3 10 8 10 11 0 2 -4 4 -10 4 -5 0 -10
-5 -10 -11z"/>
<path d="M5570 339 c0 -5 5 -7 10 -4 6 3 10 8 10 11 0 2 -4 4 -10 4 -5 0 -10
-5 -10 -11z"/>
<path d="M5560 290 c-20 -12 -10 -19 14 -10 11 3 15 9 10 13 -6 3 -16 2 -24
-3z"/>
<path d="M5821 6203 c0 -11 3 -13 6 -5 2 6 10 9 15 6 7 -4 8 -2 4 4 -11 18
-26 14 -25 -5z"/>
<path d="M5781 6194 c0 -11 3 -14 6 -6 3 7 2 16 -1 19 -3 4 -6 -2 -5 -13z"/>
<path d="M7259 6195 c-3 -16 -11 -19 -48 -16 -41 3 -43 2 -28 -14 25 -24 77
-37 83 -20 4 10 13 11 34 5 21 -6 32 -4 41 6 10 12 5 14 -29 14 -34 0 -41 3
-44 23 -4 20 -4 20 -9 2z"/>
<path d="M7065 6180 l-20 -9 20 1 c11 0 34 4 50 8 l30 8 -30 0 c-16 0 -39 -3
-50 -8z"/>
<path d="M3795 6090 c10 -11 20 -20 23 -20 3 0 -3 9 -13 20 -10 11 -20 20 -23
20 -3 0 3 -9 13 -20z"/>
<path d="M3845 6080 c-3 -5 -5 -10 -3 -11 33 -8 38 -7 27 7 -14 17 -16 17 -24
4z"/>
<path d="M3832 6051 c1 -3 -2 -14 -6 -23 -4 -9 -3 -25 4 -35 10 -16 11 -14 7
10 -2 15 0 30 6 34 5 3 7 1 3 -5 -3 -6 -1 -14 6 -18 7 -4 10 -4 6 1 -4 4 -3
14 2 20 8 9 5 14 -9 18 -11 3 -20 2 -19 -2z"/>
<path d="M3646 6008 c3 -4 0 -8 -5 -8 -6 0 -11 -6 -11 -14 0 -7 -6 -19 -14
-25 -14 -12 -17 -113 -3 -127 4 -4 7 -2 7 4 0 19 68 89 100 102 21 9 38 9 58
2 24 -8 31 -7 41 10 11 18 10 18 -9 8 -20 -11 -21 -10 -10 10 11 20 10 21 -9
10 -12 -6 -22 -8 -22 -5 -1 3 -2 9 -3 14 0 5 -5 13 -10 18 -5 5 -6 3 -2 -4 4
-7 3 -13 -2 -13 -6 0 -12 7 -16 15 -7 19 -30 19 -46 0 -12 -14 -35 -11 -26 4
3 4 -1 8 -9 8 -8 0 -12 -4 -9 -9z"/>
<path d="M6960 5975 c0 -14 4 -25 9 -25 4 0 6 11 3 25 -2 14 -6 25 -8 25 -2 0
-4 -11 -4 -25z"/>
<path d="M7466 5985 c3 -11 7 -26 7 -32 0 -7 4 -13 9 -13 12 0 9 11 -8 40 -10
17 -13 18 -8 5z"/>
<path d="M3860 5952 c0 -5 8 -16 18 -25 18 -17 32 -14 32 7 0 6 -5 4 -10 -4
-8 -12 -10 -11 -10 8 0 13 -6 22 -15 22 -8 0 -15 -4 -15 -8z"/>
<path d="M3936 5943 c-4 -9 -1 -20 6 -24 9 -6 8 -12 -3 -25 -12 -16 -12 -17 4
-11 19 7 24 -9 5 -16 -8 -3 -6 -6 5 -6 9 -1 16 -4 15 -8 -4 -14 36 -73 49 -73
16 0 17 30 1 67 -6 15 -10 33 -9 38 2 6 -1 7 -4 3 -8 -8 -45 34 -45 50 0 19
-18 22 -24 5z"/>
<path d="M6972 5920 c0 -14 2 -19 5 -12 2 6 2 18 0 25 -3 6 -5 1 -5 -13z"/>
<path d="M6981 5864 c0 -11 3 -14 6 -6 3 7 2 16 -1 19 -3 4 -6 -2 -5 -13z"/>
<path d="M8015 5860 c-4 -6 -3 -16 3 -22 6 -6 12 -6 17 2 4 6 3 16 -3 22 -6 6
-12 6 -17 -2z"/>
<path d="M6696 5774 c-4 -10 -2 -22 4 -28 8 -8 9 -6 5 5 -4 10 0 19 11 23 13
5 15 2 12 -19 -4 -16 -1 -24 6 -22 6 2 11 15 11 28 0 29 -39 40 -49 13z"/>
<path d="M6078 5763 c-9 -2 -15 -10 -12 -18 6 -16 -12 -29 -27 -19 -8 4 -7 9
2 15 11 7 10 9 -3 9 -9 0 -20 -4 -23 -10 -3 -5 -15 -10 -25 -10 -10 0 -21 -4
-25 -9 -3 -6 7 -6 27 -1 40 12 50 4 14 -10 -15 -5 -24 -14 -21 -20 3 -5 8 -10
11 -10 3 0 2 5 -1 10 -5 8 18 15 28 8 1 -1 13 5 27 13 14 7 39 18 57 24 26 8
29 12 17 23 -12 11 -14 10 -14 -3 0 -8 -5 -15 -11 -15 -6 0 -9 7 -5 15 3 8 4
14 3 14 -1 -1 -10 -3 -19 -6z"/>
<path d="M6560 5759 c0 -5 5 -7 10 -4 6 3 10 8 10 11 0 2 -4 4 -10 4 -5 0 -10
-5 -10 -11z"/>
<path d="M6598 5737 c-3 -19 -2 -25 4 -19 6 6 8 18 6 28 -3 14 -5 12 -10 -9z"/>
<path d="M6514 5728 c-5 -16 -1 -27 16 -40 30 -24 40 -14 12 12 -12 11 -19 27
-16 35 4 8 4 15 1 15 -3 0 -9 -10 -13 -22z"/>
<path d="M7442 5733 c2 -9 8 -18 15 -20 7 -3 9 3 6 16 -6 25 -26 28 -21 4z"/>
<path d="M6566 5727 c3 -10 9 -15 12 -12 3 3 0 11 -7 18 -10 9 -11 8 -5 -6z"/>
<path d="M7264 5723 c2 -10 8 -47 11 -81 7 -59 9 -63 29 -58 11 3 29 6 38 6
14 0 16 5 9 22 -4 12 -14 24 -21 26 -7 3 -10 0 -6 -7 5 -7 1 -9 -8 -5 -9 3
-16 12 -16 19 0 7 -3 27 -6 44 -5 24 -3 31 9 31 9 0 19 5 22 10 4 6 -8 10 -30
10 -30 0 -35 -3 -31 -17z"/>
<path d="M7368 5705 c2 -19 6 -35 8 -35 2 0 4 16 4 35 0 19 -4 35 -8 35 -4 0
-6 -16 -4 -35z"/>
<path d="M6165 5710 c-3 -6 1 -7 9 -4 18 7 21 14 7 14 -6 0 -13 -4 -16 -10z"/>
<path d="M5820 5674 c-19 -7 -30 -13 -23 -13 6 -1 19 -4 29 -8 13 -5 15 -3 9
7 -6 10 -4 12 8 7 10 -3 17 -2 17 3 0 6 5 10 11 10 6 0 9 -7 6 -15 -4 -8 -3
-16 1 -19 4 -2 9 6 10 20 2 28 -12 29 -68 8z"/>
<path d="M5953 5675 c0 -7 6 -11 14 -8 7 3 13 6 13 8 0 2 -6 5 -13 8 -8 3 -14
-1 -14 -8z"/>
<path d="M6164 5675 c-4 -8 -11 -12 -17 -8 -6 4 -7 1 -3 -6 6 -8 2 -11 -10 -9
-12 2 -19 -3 -19 -12 0 -8 -7 -20 -15 -27 -12 -10 -11 -11 8 -6 13 3 21 11 18
18 -2 7 4 15 14 18 16 4 48 47 35 47 -3 0 -8 -7 -11 -15z"/>
<path d="M6041 5650 c13 -10 19 -19 14 -20 -6 0 -16 5 -22 11 -8 8 -13 7 -18
-2 -5 -7 -4 -10 3 -5 6 3 13 2 17 -4 4 -6 -6 -10 -22 -11 -24 0 -25 -1 -8 -9
11 -4 24 -4 30 1 15 15 28 10 15 -6 -7 -8 -8 -15 -3 -15 9 0 43 36 43 46 0 3
-5 2 -12 -2 -7 -5 -9 -2 -5 9 4 11 2 14 -7 11 -8 -3 -17 -1 -21 5 -3 6 -11 11
-17 11 -5 0 0 -9 13 -20z"/>
<path d="M6204 5653 c-17 -13 -16 -14 21 -8 l40 6 -45 -19 c-25 -10 -49 -16
-55 -14 -5 3 -4 7 3 10 7 2 12 9 12 15 0 7 -4 7 -12 -1 -7 -7 -13 -18 -13 -24
0 -6 -35 -22 -79 -35 -71 -22 -76 -25 -60 -38 11 -8 24 -14 29 -15 6 0 3 4 -5
10 -19 12 -24 9 113 54 64 21 117 42 117 47 0 9 -19 23 -36 25 -5 1 -19 -5
-30 -13z"/>
<path d="M4190 5640 c0 -5 5 -10 10 -10 6 0 10 5 10 10 0 6 -4 10 -10 10 -5 0
-10 -4 -10 -10z"/>
<path d="M5803 5637 c14 -11 15 -16 5 -20 -7 -3 -3 -4 9 -4 25 1 21 12 -10 27
-20 10 -21 10 -4 -3z"/>
<path d="M5845 5641 c-3 -5 -2 -12 3 -15 5 -3 9 1 9 9 0 17 -3 19 -12 6z"/>
<path d="M5922 5638 c2 -6 11 -13 19 -16 12 -3 12 -2 0 6 -11 8 -10 11 5 15
16 4 15 5 -4 6 -14 1 -22 -4 -20 -11z"/>
<path d="M4635 5629 c-23 -9 -19 -10 53 -15 28 -2 52 0 52 4 0 5 -15 7 -32 6
-18 -1 -37 1 -43 6 -5 4 -19 4 -30 -1z"/>
<path d="M5707 5621 c3 -11 8 -20 12 -19 3 0 13 0 21 -1 13 -1 13 -2 0 -11 -9
-6 -10 -10 -3 -10 6 0 15 5 18 10 5 8 11 8 19 1 9 -8 13 -7 13 3 0 8 -8 13
-19 11 -10 -2 -18 1 -18 7 0 6 -3 8 -7 5 -3 -4 -14 0 -24 9 -16 15 -17 14 -12
-5z"/>
<path d="M7440 5610 c0 -6 7 -10 15 -10 8 0 15 2 15 4 0 2 -7 6 -15 10 -8 3
-15 1 -15 -4z"/>
<path d="M5608 5603 c-10 -2 -18 -12 -17 -21 0 -11 2 -12 6 -4 2 6 8 10 13 7
4 -3 10 2 14 10 3 8 4 14 3 14 -1 -1 -10 -3 -19 -6z"/>
<path d="M5953 5596 c0 -21 32 -30 54 -16 16 9 15 10 -5 5 -16 -5 -27 -1 -36
10 -11 16 -13 16 -13 1z"/>
<path d="M6313 5599 c5 -14 -1 -16 -29 -14 -40 4 -42 -13 -3 -27 23 -8 23 -7
5 7 -18 13 -14 14 35 11 46 -3 50 -2 29 7 -14 6 -29 16 -33 22 -5 6 -7 3 -4
-6z"/>
<path d="M6351 5606 c2 -2 15 -9 29 -15 24 -11 24 -11 6 3 -16 13 -49 24 -35
12z"/>
<path d="M5865 5590 c-3 -5 -11 -8 -18 -6 -7 1 -9 1 -4 -1 12 -8 8 -25 -5 -18
-7 4 -4 -1 6 -9 11 -9 14 -16 8 -16 -7 0 -12 -5 -12 -11 0 -8 5 -8 15 1 8 7
12 16 9 21 -3 5 1 9 8 9 10 0 10 2 -1 9 -9 6 -10 11 -2 15 6 4 16 4 23 0 7 -4
8 -3 4 4 -9 14 -23 15 -31 2z"/>
<path d="M6410 5581 c0 -6 -8 -11 -17 -12 -16 0 -16 -1 1 -8 26 -10 4 -24 -27
-17 -12 3 -16 3 -9 0 6 -3 10 -9 7 -14 -3 -4 3 -7 13 -6 17 1 34 19 32 32 -1
4 4 10 10 14 9 5 9 9 1 14 -6 4 -11 2 -11 -3z"/>
<path d="M6981 5574 c0 -11 3 -14 6 -6 3 7 2 16 -1 19 -3 4 -6 -2 -5 -13z"/>
<path d="M5479 5563 c-13 -16 -12 -17 4 -4 9 7 17 15 17 17 0 8 -8 3 -21 -13z"/>
<path d="M5663 5570 c-28 -11 -29 -15 -5 -16 9 -1 31 -4 47 -8 l30 -6 -29 11
c-21 9 -25 14 -15 20 18 11 1 10 -28 -1z"/>
<path d="M5767 5569 c7 -7 15 -10 18 -7 3 3 -2 9 -12 12 -14 6 -15 5 -6 -5z"/>
<path d="M6187 5569 c7 -7 15 -10 18 -7 3 3 -2 9 -12 12 -14 6 -15 5 -6 -5z"/>
<path d="M6234 5562 c3 -5 0 -13 -6 -15 -9 -4 -10 -6 -1 -6 17 -1 25 16 12 25
-7 4 -9 3 -5 -4z"/>
<path d="M5565 5551 c-22 -5 -29 -12 -27 -25 2 -13 0 -16 -10 -10 -7 5 -24 7
-38 6 -20 -2 -22 -1 -10 8 11 8 8 9 -15 4 -51 -12 -48 -14 30 -19 11 -1 30 -7
42 -13 29 -16 44 5 18 25 -17 12 -16 13 13 13 18 0 32 5 32 10 0 6 -1 9 -2 9
-2 -1 -16 -4 -33 -8z"/>
<path d="M5800 5556 c0 -2 7 -7 16 -10 8 -3 12 -2 9 4 -6 10 -25 14 -25 6z"/>
<path d="M6467 5542 c5 -12 2 -14 -13 -8 -15 6 -17 5 -6 -5 9 -10 15 -10 23
-2 6 6 18 9 27 6 9 -4 13 -2 9 4 -4 6 -15 13 -26 16 -15 3 -18 1 -14 -11z"/>
<path d="M5753 5543 c12 -3 16 -10 12 -24 -4 -11 -2 -19 5 -19 6 0 8 5 5 10
-3 6 -2 10 3 10 22 0 6 26 -17 27 -15 0 -19 -1 -8 -4z"/>
<path d="M5918 5534 c-50 -15 -54 -20 -38 -44 8 -13 10 -12 10 3 0 15 13 21
48 20 6 -1 12 3 12 8 0 5 6 9 14 9 8 0 18 5 21 10 8 13 -10 12 -67 -6z"/>
<path d="M6160 5536 c13 -18 13 -19 0 -14 -8 3 -24 2 -35 -3 -17 -6 -15 -8 10
-9 26 -1 27 -3 10 -9 -11 -5 -24 -6 -30 -3 -5 3 -5 -1 1 -7 16 -17 76 -29 99
-20 14 5 5 8 -30 10 -27 1 -39 4 -26 6 13 3 33 14 45 26 l21 21 -29 -18 c-24
-16 -28 -16 -23 -3 3 9 -2 21 -11 29 -16 12 -16 11 -2 -6z"/>
<path d="M6310 5546 c0 -2 7 -7 16 -10 8 -3 12 -2 9 4 -6 10 -25 14 -25 6z"/>
<path d="M6922 5428 c-7 -68 -21 -163 -32 -212 -11 -49 -18 -91 -16 -93 5 -6
44 160 60 262 25 151 26 165 12 165 -8 0 -16 -38 -24 -122z"/>
<path d="M6985 5540 c-4 -6 5 -10 19 -10 22 0 26 -5 26 -27 0 -16 -4 -23 -8
-17 -4 7 -7 -19 -7 -57 0 -83 10 -61 20 44 l7 77 -26 0 c-13 0 -28 -4 -31 -10z"/>
<path d="M7222 5530 c0 -14 2 -19 5 -12 2 6 2 18 0 25 -3 6 -5 1 -5 -13z"/>
<path d="M5675 5531 c-3 -6 4 -15 15 -21 23 -12 26 -5 6 16 -9 8 -17 10 -21 5z"/>
<path d="M5735 5520 c-3 -5 -1 -10 4 -10 6 0 11 5 11 10 0 6 -2 10 -4 10 -3 0
-8 -4 -11 -10z"/>
<path d="M6078 5523 c7 -3 16 -2 19 1 4 3 -2 6 -13 5 -11 0 -14 -3 -6 -6z"/>
<path d="M6270 5520 c-12 -8 -12 -10 -1 -10 11 0 11 -3 1 -15 -6 -8 -10 -20
-7 -27 3 -8 6 -6 6 5 1 10 5 16 10 13 4 -3 17 1 27 9 15 12 15 14 3 9 -10 -3
-20 0 -25 7 -4 7 -3 10 4 5 6 -3 13 -2 17 4 8 13 -15 13 -35 0z"/>
<path d="M4230 5510 c0 -5 7 -10 16 -10 8 0 12 5 9 10 -3 6 -10 10 -16 10 -5
0 -9 -4 -9 -10z"/>
<path d="M5630 5516 c0 -2 7 -9 15 -16 9 -7 15 -8 15 -2 0 5 -7 12 -15 16 -8
3 -15 4 -15 2z"/>
<path d="M5986 5505 c-3 -8 -1 -15 4 -15 6 0 10 7 10 15 0 8 -2 15 -4 15 -2 0
-6 -7 -10 -15z"/>
<path d="M5734 5488 c4 -13 -7 -20 -51 -33 -45 -13 -58 -14 -64 -4 -4 7 -6 16
-3 20 9 15 -14 18 -26 4 -10 -12 -10 -15 3 -15 31 0 25 -27 -9 -44 -40 -18
-64 -21 -64 -5 0 5 -5 7 -12 3 -8 -5 -5 -10 9 -17 15 -6 56 3 157 37 76 25
144 46 152 46 8 0 13 4 10 9 -3 4 -24 3 -46 -3 -34 -8 -43 -8 -51 4 -9 13 -10
12 -5 -2z"/>
<path d="M6310 5480 c-46 -25 -34 -25 21 0 24 11 37 19 29 19 -8 0 -31 -8 -50
-19z"/>
<path d="M4110 5469 c0 -5 5 -7 10 -4 6 3 10 8 10 11 0 2 -4 4 -10 4 -5 0 -10
-5 -10 -11z"/>
<path d="M5549 5473 c-1 -5 -1 -11 0 -15 0 -4 -17 -11 -39 -14 -44 -7 -58 -19
-34 -28 8 -3 13 -2 10 2 -3 5 16 14 42 21 26 7 41 15 34 18 -6 3 -10 9 -6 14
3 5 3 9 0 9 -3 0 -7 -3 -7 -7z"/>
<path d="M6037 5465 c-16 -12 -16 -13 5 -18 12 -4 24 -4 27 -2 2 3 -1 5 -7 5
-7 0 -12 4 -12 10 0 5 7 7 15 4 8 -4 15 -4 15 -1 0 12 -27 14 -43 2z"/>
<path d="M5458 5453 c7 -3 16 -2 19 1 4 3 -2 6 -13 5 -11 0 -14 -3 -6 -6z"/>
<path d="M5776 5443 c-6 -14 -5 -15 5 -6 7 7 10 15 7 18 -3 3 -9 -2 -12 -12z"/>
<path d="M5859 5443 c-13 -16 -12 -17 3 -5 9 8 23 10 29 6 8 -4 9 -3 5 4 -10
17 -21 15 -37 -5z"/>
<path d="M6210 5450 c-18 -12 -2 -12 25 0 13 6 15 9 5 9 -8 0 -22 -4 -30 -9z"/>
<path d="M6080 5439 c0 -5 5 -7 10 -4 6 3 10 8 10 11 0 2 -4 4 -10 4 -5 0 -10
-5 -10 -11z"/>
<path d="M4105 5430 c-4 -6 -11 -7 -17 -4 -7 4 -8 2 -4 -5 6 -9 11 -9 22 0 14
11 18 19 10 19 -3 0 -8 -5 -11 -10z"/>
<path d="M5700 5426 c0 -6 9 -12 20 -12 11 0 19 5 17 10 -5 14 -37 16 -37 2z"/>
<path d="M5949 5433 c-1 -4 -1 -11 0 -15 1 -11 -7 -10 -32 3 -18 9 -20 9 -10
-1 7 -7 20 -14 30 -15 10 -1 29 -7 41 -14 13 -7 26 -10 29 -7 3 3 -6 10 -20
15 -37 14 -45 33 -10 25 15 -4 34 -12 42 -17 20 -17 39 -17 45 0 4 9 0 13 -12
12 -9 -2 -28 1 -42 5 -52 16 -60 17 -61 9z"/>
<path d="M6998 5434 c-5 -4 -8 -16 -8 -28 0 -14 3 -17 11 -9 6 6 9 19 7 28 -1
9 -6 13 -10 9z"/>
<path d="M5665 5410 c3 -5 8 -10 11 -10 2 0 4 5 4 10 0 6 -5 10 -11 10 -5 0
-7 -4 -4 -10z"/>
<path d="M5788 5413 c7 -3 16 -2 19 1 4 3 -2 6 -13 5 -11 0 -14 -3 -6 -6z"/>
<path d="M6090 5409 c0 -5 5 -7 10 -4 6 3 10 8 10 11 0 2 -4 4 -10 4 -5 0 -10
-5 -10 -11z"/>
<path d="M5625 5400 c-3 -5 -2 -10 4 -10 5 0 13 5 16 10 3 6 2 10 -4 10 -5 0
-13 -4 -16 -10z"/>
<path d="M5812 5389 c-12 -18 -11 -20 4 -17 9 1 18 11 20 21 3 23 -8 22 -24
-4z"/>
<path d="M5850 5390 c0 -5 5 -10 10 -10 6 0 10 5 10 10 0 6 -4 10 -10 10 -5 0
-10 -4 -10 -10z"/>
<path d="M5736 5381 c-3 -4 0 -16 7 -25 11 -14 12 -13 12 9 0 25 -9 33 -19 16z"/>
<path d="M5555 5370 c3 -5 8 -10 11 -10 2 0 4 5 4 10 0 6 -5 10 -11 10 -5 0
-7 -4 -4 -10z"/>
<path d="M5935 5370 c3 -5 8 -10 11 -10 2 0 4 5 4 10 0 6 -5 10 -11 10 -5 0
-7 -4 -4 -10z"/>
<path d="M5686 5362 c-8 -14 8 -24 28 -16 18 7 22 24 6 24 -5 0 -10 -6 -10
-12 0 -10 -3 -9 -9 1 -5 8 -11 9 -15 3z"/>
<path d="M5770 5359 c0 -5 5 -7 10 -4 6 3 10 8 10 11 0 2 -4 4 -10 4 -5 0 -10
-5 -10 -11z"/>
<path d="M5900 5366 c0 -2 7 -9 15 -16 9 -7 15 -8 15 -2 0 5 -7 12 -15 16 -8
3 -15 4 -15 2z"/>
<path d="M5595 5350 c-3 -6 1 -7 9 -4 18 7 21 14 7 14 -6 0 -13 -4 -16 -10z"/>
<path d="M5643 5337 c-22 -12 -22 -13 -4 -24 20 -13 61 -7 61 9 0 5 -9 4 -20
-2 -28 -15 -46 -2 -23 16 22 17 15 17 -14 1z"/>
<path d="M5793 5343 c-18 -7 -16 -30 3 -37 24 -9 31 -6 11 5 -14 8 -16 14 -6
25 12 15 11 15 -8 7z"/>
<path d="M5853 5335 c0 -8 4 -12 9 -9 4 3 8 9 8 15 0 5 -4 9 -8 9 -5 0 -9 -7
-9 -15z"/>
<path d="M5815 5330 c-3 -5 -1 -10 4 -10 6 0 11 5 11 10 0 6 -2 10 -4 10 -3 0
-8 -4 -11 -10z"/>
<path d="M4140 5303 c0 -15 2 -15 24 -7 23 9 20 23 -4 21 -11 -1 -20 -7 -20
-14z"/>
<path d="M5720 5304 c-17 -10 -18 -13 -5 -8 25 8 35 8 60 -1 l20 -8 -20 16
c-24 20 -24 20 -55 1z"/>
<path d="M4040 5275 c0 -10 7 -15 18 -13 21 4 19 22 -2 26 -10 2 -16 -3 -16
-13z"/>
<path d="M6990 5215 c0 -13 8 -16 38 -13 20 2 37 8 37 13 0 6 -17 11 -37 13
-30 3 -38 0 -38 -13z"/>
<path d="M8361 5212 c-66 -33 -91 -133 -51 -199 49 -81 168 -84 229 -7 28 36
29 116 1 162 -35 58 -115 77 -179 44z m106 -75 c-2 -7 -16 -11 -31 -9 -16 2
-25 -1 -23 -5 3 -5 -3 -9 -13 -9 -15 0 -17 3 -7 14 10 12 6 14 -23 8 -24 -5
-30 -4 -21 2 21 15 123 14 118 -1z m-100 -43 c-3 -3 -12 -4 -19 -1 -8 3 -5 6
6 6 11 1 17 -2 13 -5z m68 -44 c-3 -5 -12 -10 -18 -10 -7 0 -6 4 3 10 19 12
23 12 15 0z"/>
<path d="M5145 5210 c-3 -5 -1 -10 4 -10 6 0 11 5 11 10 0 6 -2 10 -4 10 -3 0
-8 -4 -11 -10z"/>
<path d="M4130 5186 c0 -2 7 -9 15 -16 12 -10 15 -10 15 4 0 9 -7 16 -15 16
-8 0 -15 -2 -15 -4z"/>
<path d="M5219 5098 c15 -21 2 -24 -18 -5 -11 9 -12 9 -7 0 4 -7 15 -17 26
-23 14 -8 18 -6 16 5 -1 8 -8 21 -16 28 -12 10 -12 9 -1 -5z"/>
<path d="M6854 5086 c-6 -26 1 -46 17 -46 5 0 9 7 9 15 0 8 -5 15 -11 15 -6 0
-8 9 -4 20 3 11 4 20 1 20 -3 0 -8 -11 -12 -24z"/>
<path d="M4114 5068 c-4 -7 -4 -10 1 -6 4 4 16 3 26 -3 11 -6 19 -6 19 0 0 5
-7 12 -16 15 -21 8 -22 8 -30 -6z"/>
<path d="M4337 5069 c7 -9 10 -19 6 -22 -3 -4 1 -7 9 -7 10 0 15 -8 15 -22 -1
-13 2 -35 6 -50 5 -18 3 -28 -3 -28 -6 0 -8 5 -4 12 4 6 3 8 -4 5 -5 -4 -8
-17 -4 -29 4 -17 2 -20 -11 -15 -10 4 -17 2 -17 -4 0 -6 -9 -5 -22 3 -13 7
-27 11 -31 10 -32 -9 -78 -9 -83 0 -5 7 -2 8 6 3 9 -5 11 -4 6 4 -4 6 -11 9
-17 6 -11 -7 -81 39 -72 48 3 4 -8 10 -25 13 -27 5 -30 9 -21 25 7 15 6 17 -6
13 -8 -4 -15 -2 -15 4 0 14 -82 11 -100 -3 -8 -7 -24 -11 -35 -9 -24 4 -55 -4
-53 -14 3 -15 -15 -42 -27 -42 -15 0 -27 -31 -30 -78 -2 -39 32 -73 105 -105
25 -11 57 -29 72 -40 22 -16 30 -18 42 -8 19 16 75 5 83 -15 3 -8 11 -14 19
-14 8 0 14 -4 14 -10 0 -5 7 -10 15 -10 8 0 15 -5 15 -11 0 -5 -5 -7 -12 -3
-7 4 -8 3 -4 -4 5 -8 17 -5 42 8 40 23 58 26 49 8 -4 -7 1 -4 9 6 9 11 16 17
16 13 0 -4 10 -1 23 7 12 7 38 19 57 25 19 6 48 23 64 38 27 23 30 31 28 77
-4 93 -7 114 -14 110 -4 -3 -17 14 -28 38 -11 24 -33 52 -48 63 -17 12 -22 13
-15 4z m-254 -146 c-7 -2 -21 -2 -30 0 -10 3 -4 5 12 5 17 0 24 -2 18 -5z m66
-19 c13 -12 -8 -10 -29 2 l-25 15 25 -7 c14 -3 27 -8 29 -10z"/>
<path d="M6827 5046 c-4 -10 -7 -25 -6 -34 0 -11 4 -9 10 7 5 13 8 29 6 35 -2
5 -6 2 -10 -8z"/>
<path d="M6515 5033 c-98 -3 -122 -6 -132 -20 -20 -26 -16 -33 20 -33 67 0
103 -84 56 -131 -16 -16 -30 -20 -58 -16 l-37 4 4 -71 c5 -115 -2 -108 72 -76
36 16 103 45 150 65 47 20 95 46 108 58 22 21 22 21 3 32 -20 10 -19 13 18 97
43 98 43 100 -37 96 -26 -1 -101 -4 -167 -5z m35 -180 c-11 -17 -11 -17 -6 0
3 10 6 24 7 30 0 9 2 9 5 0 3 -7 0 -20 -6 -30z m-36 -108 c-4 -8 -11 -15 -16
-15 -6 0 -5 6 2 15 7 8 14 15 16 15 2 0 1 -7 -2 -15z"/>
<path d="M6861 5014 c0 -11 3 -14 6 -6 3 7 2 16 -1 19 -3 4 -6 -2 -5 -13z"/>
<path d="M6840 5005 c0 -5 5 -17 10 -25 5 -8 10 -10 10 -5 0 6 -5 17 -10 25
-5 8 -10 11 -10 5z"/>
<path d="M3795 4990 c3 -5 11 -10 16 -10 6 0 7 5 4 10 -3 6 -11 10 -16 10 -6
0 -7 -4 -4 -10z"/>
<path d="M6812 4960 c0 -14 2 -19 5 -12 2 6 2 18 0 25 -3 6 -5 1 -5 -13z"/>
<path d="M5147 4963 c-10 -9 -9 -23 2 -23 5 0 11 7 15 15 5 15 -5 20 -17 8z"/>
<path d="M6364 4938 l-19 -21 27 17 c21 14 31 15 47 6 12 -6 21 -18 20 -28 0
-10 -3 -12 -6 -4 -8 20 -30 14 -37 -10 -5 -19 -8 -21 -16 -8 -8 13 -10 13 -10
-2 0 -10 9 -22 20 -28 25 -13 60 18 60 55 0 44 -55 59 -86 23z"/>
<path d="M6831 4934 c0 -11 3 -14 6 -6 3 7 2 16 -1 19 -3 4 -6 -2 -5 -13z"/>
<path d="M6750 4920 c-6 -11 -8 -20 -6 -20 3 0 10 9 16 20 6 11 8 20 6 20 -3
0 -10 -9 -16 -20z"/>
<path d="M6700 4883 c0 -2 7 -11 15 -19 12 -13 15 -12 24 5 9 16 7 19 -14 19
-14 0 -25 -3 -25 -5z"/>
<path d="M6794 4875 c-5 -13 -9 -13 -22 -3 -13 11 -15 10 -9 -5 4 -11 1 -28
-8 -40 -17 -24 -20 -47 -6 -47 5 0 12 11 15 25 4 14 11 23 17 20 5 -4 8 -1 7
6 -2 6 2 13 9 16 17 6 4 -35 -30 -89 -16 -27 -27 -54 -24 -60 3 -8 9 -1 16 15
6 15 27 52 46 82 19 31 35 58 35 60 0 3 -9 5 -21 5 -15 0 -19 5 -15 15 3 8 3
15 0 15 -2 0 -7 -7 -10 -15z"/>
<path d="M3784 4818 c18 -28 56 -63 103 -95 31 -21 33 -21 42 -4 8 14 5 23
-12 39 -18 16 -97 61 -140 81 -5 2 -2 -8 7 -21z"/>
<path d="M5068 4833 c7 -3 16 -2 19 1 4 3 -2 6 -13 5 -11 0 -14 -3 -6 -6z"/>
<path d="M6717 4743 c-6 -31 -76 -144 -114 -184 -24 -27 -24 -30 9 -42 12 -4
15 -2 11 8 -3 8 14 45 38 82 68 108 92 163 70 163 -5 0 -11 -12 -14 -27z"/>
<path d="M6508 4703 l-138 -55 -1 -37 c-5 -115 -3 -200 4 -208 17 -16 210 214
290 344 13 22 -11 15 -155 -44z m-5 -33 c-3 -12 -8 -19 -11 -16 -5 6 5 36 12
36 2 0 2 -9 -1 -20z m-62 -53 c-10 -9 -11 -8 -5 6 3 10 9 15 12 12 3 -3 0 -11
-7 -18z m16 -89 c-3 -8 -6 -5 -6 6 -1 11 2 17 5 13 3 -3 4 -12 1 -19z"/>
<path d="M6265 4605 c-33 -14 -62 -25 -65 -25 -2 0 25 -29 60 -65 35 -36 70
-65 77 -65 9 0 12 25 12 90 -1 61 -5 90 -12 90 -7 0 -39 -12 -72 -25z"/>
<path d="M4915 4580 c-3 -5 -1 -10 4 -10 6 0 11 5 11 10 0 6 -2 10 -4 10 -3 0
-8 -4 -11 -10z"/>
<path d="M6143 4387 c-23 -95 -39 -174 -38 -176 5 -5 164 100 212 141 l42 35
-18 29 c-20 32 -106 115 -137 132 -19 10 -22 2 -61 -161z"/>
<path d="M6506 4440 c-38 -45 -91 -100 -118 -122 -53 -45 -58 -66 -6 -26 84
65 201 192 196 214 -2 11 -27 -12 -72 -66z"/>
<path d="M4910 4480 c0 -5 5 -10 11 -10 5 0 7 5 4 10 -3 6 -8 10 -11 10 -2 0
-4 -4 -4 -10z"/>
<path d="M4030 4452 c-8 -2 -22 -6 -30 -9 -8 -3 -23 -8 -34 -10 -30 -6 -86
-35 -86 -45 0 -5 -6 -8 -12 -7 -25 3 -58 -13 -51 -25 4 -6 -1 -5 -10 3 -10 8
-21 11 -24 7 -4 -4 -1 -11 7 -17 13 -8 13 -10 1 -18 -10 -7 -12 -21 -6 -56 3
-26 9 -55 13 -63 4 -11 1 -14 -10 -9 -14 5 -14 0 -3 -45 17 -63 20 -65 34 -29
7 16 27 42 44 57 34 30 38 31 211 39 55 2 105 6 111 9 6 2 19 -2 30 -10 14
-11 22 -11 33 -2 11 10 17 9 26 -4 10 -13 13 -14 25 -1 21 22 46 -6 37 -42 -7
-26 -33 -30 -28 -4 1 8 -8 3 -21 -11 -25 -27 -33 -30 -87 -35 -19 -2 -48 -9
-65 -15 -16 -6 -30 -11 -30 -10 0 5 -61 -23 -65 -30 -7 -11 -102 -27 -152 -25
-30 0 -39 -4 -48 -24 -6 -13 -9 -26 -6 -28 14 -14 281 6 352 26 39 11 61 3 38
-14 -11 -7 -53 -13 -106 -14 -49 -1 -96 -5 -104 -8 -19 -7 -45 -10 -106 -12
-27 0 -48 -5 -48 -10 0 -6 36 -8 84 -6 82 4 84 4 88 -20 3 -14 1 -23 -6 -22
-6 1 -10 -4 -8 -10 1 -7 -4 -13 -12 -13 -8 0 -18 -5 -21 -10 -4 -7 2 -9 17 -5
12 3 79 7 148 9 69 2 133 7 143 11 10 4 31 5 48 1 22 -4 28 -2 23 7 -4 6 1 4
12 -5 18 -16 20 -15 45 10 14 15 34 40 44 55 16 24 16 30 4 38 -8 5 -9 9 -4 9
6 0 21 10 35 23 14 12 24 21 22 20 -3 -1 -13 2 -23 7 -12 7 -19 6 -22 -3 -4
-7 -6 -8 -6 -1 -1 6 7 18 16 25 11 10 14 10 9 2 -4 -7 -3 -13 3 -13 5 0 12 3
14 8 6 9 -19 33 -27 25 -3 -4 -6 -2 -6 3 0 11 -60 12 -76 1 -6 -3 -11 0 -11 8
0 8 3 15 6 16 33 4 57 11 65 19 6 6 17 10 26 10 9 0 40 7 69 16 51 15 52 16
46 47 -9 40 -59 88 -98 93 -17 2 -34 9 -38 16 -6 9 -12 8 -25 -3 -10 -8 -15
-9 -11 -2 6 9 -1 11 -23 8 -16 -2 -36 2 -43 8 -6 7 -22 13 -33 14 -12 1 -61
21 -110 44 -85 39 -163 60 -194 51z m-110 -134 c0 -5 5 -6 12 -2 7 4 8 3 4 -4
-12 -20 -45 -14 -43 7 1 19 27 18 27 -1z"/>
<path d="M5688 4003 c7 -3 16 -2 19 1 4 3 -2 6 -13 5 -11 0 -14 -3 -6 -6z"/>
<path d="M4464 3943 c-20 -21 -18 -24 12 -13 14 6 29 8 34 5 5 -3 11 -1 14 4
10 15 -44 19 -60 4z"/>
<path d="M4545 3950 c-3 -5 -1 -10 4 -10 6 0 11 5 11 10 0 6 -2 10 -4 10 -3 0
-8 -4 -11 -10z"/>
<path d="M4525 3920 c-3 -6 1 -7 9 -4 18 7 21 14 7 14 -6 0 -13 -4 -16 -10z"/>
<path d="M4480 3910 c0 -5 7 -7 15 -4 8 4 15 8 15 10 0 2 -7 4 -15 4 -8 0 -15
-4 -15 -10z"/>
<path d="M4510 3888 c0 -4 4 -8 9 -8 6 0 12 4 15 8 3 5 -1 9 -9 9 -8 0 -15 -4
-15 -9z"/>
<path d="M8116 3650 c4 -19 11 -44 15 -55 6 -14 7 -9 3 15 -4 19 -11 44 -15
55 -6 14 -7 9 -3 -15z"/>
<path d="M4330 3659 c0 -5 5 -7 10 -4 6 3 10 8 10 11 0 2 -4 4 -10 4 -5 0 -10
-5 -10 -11z"/>
<path d="M8146 3540 c4 -19 11 -44 15 -55 6 -14 7 -9 3 15 -4 19 -11 44 -15
55 -6 14 -7 9 -3 -15z"/>
<path d="M8171 3450 c0 -8 4 -24 9 -35 5 -13 9 -14 9 -5 0 8 -4 24 -9 35 -5
13 -9 14 -9 5z"/>
<path d="M8191 3374 c0 -11 3 -14 6 -6 3 7 2 16 -1 19 -3 4 -6 -2 -5 -13z"/>
<path d="M4635 3284 c-166 -48 -216 -67 -253 -93 -107 -78 -73 -124 135 -186
51 -15 90 -31 88 -35 -2 -4 8 -5 23 -3 18 3 23 2 14 -4 -9 -7 1 -13 33 -20 43
-10 45 -9 45 12 0 19 -7 24 -46 30 -74 11 -110 33 -138 85 -14 26 -26 57 -26
68 0 29 59 76 129 103 43 17 61 29 61 41 0 21 1 21 -65 2z"/>
<path d="M4223 3253 c15 -2 39 -2 55 0 15 2 2 4 -28 4 -30 0 -43 -2 -27 -4z"/>
<path d="M6205 2717 c-4 -10 -3 -23 4 -30 16 -16 23 -3 12 24 -8 22 -10 22
-16 6z"/>
<path d="M5660 2668 c0 -7 -3 -23 -6 -35 -5 -19 -2 -23 15 -23 16 0 21 6 21
25 0 14 5 25 11 25 7 0 9 -10 5 -26 -5 -17 -3 -23 4 -19 5 3 9 20 8 36 -2 25
-6 29 -30 29 -16 0 -28 -6 -28 -12z m17 -40 c-3 -8 -6 -5 -6 6 -1 11 2 17 5
13 3 -3 4 -12 1 -19z"/>
<path d="M5430 2640 c0 -5 14 -7 33 -3 45 8 47 13 4 13 -20 0 -37 -4 -37 -10z"/>
<path d="M6185 2640 l-30 -8 35 0 c19 0 44 3 55 8 18 8 18 9 -5 8 -14 0 -38
-4 -55 -8z"/>
<path d="M5735 2578 c-9 -24 1 -37 25 -31 12 3 20 0 20 -8 0 -18 13 -2 17 21
2 14 -3 20 -17 20 -11 0 -20 -6 -21 -12 0 -7 -4 -4 -9 7 -7 18 -9 18 -15 3z"/>
<path d="M5440 2500 c0 -5 5 -10 11 -10 5 0 7 5 4 10 -3 6 -8 10 -11 10 -2 0
-4 -4 -4 -10z"/>
<path d="M5440 2379 c0 -5 9 -9 20 -9 11 0 20 2 20 4 0 2 -9 6 -20 9 -11 3
-20 1 -20 -4z"/>
<path d="M5430 2320 c0 -5 5 -10 10 -10 6 0 10 5 10 10 0 6 -4 10 -10 10 -5 0
-10 -4 -10 -10z"/>
<path d="M8550 2219 c12 -40 16 -44 24 -24 3 9 2 13 -4 10 -6 -3 -10 3 -10 14
0 11 -4 22 -9 26 -6 3 -6 -7 -1 -26z"/>
<path d="M8570 2165 c0 -5 5 -17 10 -25 5 -8 10 -10 10 -5 0 6 -5 17 -10 25
-5 8 -10 11 -10 5z"/>
<path d="M8646 2037 c3 -10 9 -15 12 -12 3 3 0 11 -7 18 -10 9 -11 8 -5 -6z"/>
<path d="M8780 1714 c0 -6 7 -19 16 -30 14 -18 14 -18 3 6 -14 31 -19 36 -19
24z"/>
<path d="M8819 1642 c5 -10 18 -25 27 -33 11 -9 9 -2 -6 19 -26 35 -36 42 -21
14z"/>
<path d="M8900 1546 c0 -2 8 -10 18 -17 15 -13 16 -12 3 4 -13 16 -21 21 -21
13z"/>
<path d="M2510 1057 c-88 -43 -125 -82 -149 -152 -12 -34 -10 -32 46 49 35 49
109 103 155 113 26 5 61 33 42 33 -5 0 -47 -19 -94 -43z"/>
<path d="M3280 661 c-87 -28 -139 -59 -197 -117 -136 -136 -161 -339 -61 -496
30 -48 30 -48 86 -48 55 0 56 0 33 16 -22 16 -81 100 -81 116 0 19 16 6 29
-23 8 -18 32 -49 54 -70 l39 -39 181 0 c178 0 181 0 214 26 18 14 44 37 58 52
13 14 27 23 31 20 3 -4 -16 -27 -42 -52 l-48 -46 51 0 c49 0 53 2 92 47 22 26
52 72 68 102 25 51 28 66 28 161 0 114 -12 149 -76 231 -91 115 -303 171 -459
120z"/>
<path d="M1906 593 c-6 -14 -5 -15 5 -6 7 7 10 15 7 18 -3 3 -9 -2 -12 -12z"/>
<path d="M1780 560 c0 -6 7 -10 15 -10 8 0 15 2 15 4 0 2 -7 6 -15 10 -8 3
-15 1 -15 -4z"/>
<path d="M5545 140 c-3 -5 -1 -10 4 -10 6 0 11 5 11 10 0 6 -2 10 -4 10 -3 0
-8 -4 -11 -10z"/>
<path d="M5575 140 c-3 -5 -1 -10 4 -10 6 0 11 5 11 10 0 6 -2 10 -4 10 -3 0
-8 -4 -11 -10z"/>
</g>
</svg>
